<svg width="102" height="134" viewBox="0 0 102 134" fill="none" xmlns="http://www.w3.org/2000/svg">
<rect x="4" width="92.4915" height="125.339" fill="white"/>
<path d="M31.2418 14C31.2418 14 24 14 24 21.2418V67.7582C24 67.7582 24 75 31.2418 75H77.7582C77.7582 75 85 75 85 67.7582V21.2418C85 21.2418 85 14 77.7582 14H31.2418Z" fill="white"/>
<path d="M63.2292 18.0269L50.3982 37.1532L50.6687 37.3786L67.2709 21.4224L63.2292 18.0269Z" fill="#EB5B41"/>
<path d="M48.1444 14.8572L48.6102 36.5227L48.9558 36.5528L53.4181 15.3229L48.1444 14.8572Z" fill="#EB5B41"/>
<path d="M33.2101 18.4478L46.7924 37.0333L47.0929 36.868L37.7776 15.8035L33.2101 18.4478Z" fill="#EB5B41"/>
<path d="M38.3184 74.4594L45.9058 57.166L45.6053 57.0007L33.5405 72.4461L38.3184 74.4594Z" fill="#EB5B41"/>
<path d="M80.3124 74.1138C80.1171 74.1138 79.9217 74.0687 79.7414 73.9786L68.9688 68.735C68.6382 68.5697 68.3828 68.2692 68.2777 67.9086L67.5264 65.2793L65.3929 66.4061C65.0173 66.6015 64.5816 66.6015 64.206 66.4212L48.2498 58.6535C47.9193 58.4882 47.6639 58.1877 47.5587 57.8271L46.8074 55.1978L44.6739 56.3096C44.2983 56.5049 43.8626 56.5049 43.487 56.3246L31.1668 50.3298C30.8513 50.1796 30.6109 49.9091 30.4907 49.5786C30.3705 49.248 30.4005 48.8874 30.5508 48.5719C36.2 36.9579 45.7107 39.4519 52.637 41.2849C53.6737 41.5554 54.6653 41.8259 55.5668 42.0212C62.5232 43.5236 66.2643 40.0079 67.271 37.9345L78.254 15.3374L80.6279 16.4943L69.6449 39.0914C68.3227 41.8108 63.5599 46.4534 55.0109 44.6054C54.0493 44.3951 53.0276 44.1246 51.9609 43.8542C45.5153 42.1564 38.2584 40.2482 33.5257 48.5719L44.0128 53.6803L47.0028 52.1177C47.3483 51.9374 47.769 51.9074 48.1296 52.0727C48.4902 52.2229 48.7757 52.5384 48.8809 52.929L49.9176 56.55L64.7469 63.7618L67.7217 62.1993C68.0673 62.019 68.488 62.0039 68.8486 62.1542C69.2092 62.3044 69.4946 62.62 69.5998 63.0106L70.6215 66.6315L79.9067 71.1539C80.5678 70.2825 81.6195 68.8101 82.6262 67.1273L84.8949 68.4795C83.1971 71.3192 81.3942 73.5579 81.319 73.648C81.0636 73.9635 80.688 74.1288 80.2974 74.1288" fill="#272C35"/>
<path d="M34.7838 44.3334L34.2057 45.5225L82.9438 69.22L83.5219 68.0309L34.7838 44.3334Z" fill="#272C35"/>
<path d="M51.4801 53.2597L49.1062 52.1028C52.036 46.0629 49.4968 42.8777 49.3766 42.7425L51.3749 41.0146C51.5252 41.1949 55.2062 45.5671 51.4801 53.2597Z" fill="#272C35"/>
<path d="M77.7281 75H31.2719C27.2603 75 24 71.7397 24 67.7281V21.2719C24 17.2603 27.2603 14 31.2719 14H77.7281C81.7397 14 85 17.2603 85 21.2719V67.7281C85 71.7397 81.7397 75 77.7281 75ZM31.2719 16.6443C28.7177 16.6443 26.6443 18.7177 26.6443 21.2719V67.7281C26.6443 70.2823 28.7177 72.3557 31.2719 72.3557H77.7281C80.2823 72.3557 82.3557 70.2823 82.3557 67.7281V21.2719C82.3557 18.7177 80.2823 16.6443 77.7281 16.6443H31.2719Z" fill="#272C35"/>
<path d="M38.3932 97.4503H36.0412V104.83H34.7452V97.4503H32.3932V96.2863H38.3932V97.4503ZM45.3177 98.3503C45.4137 98.8063 45.4617 99.5423 45.4617 100.558C45.4617 101.574 45.4137 102.31 45.3177 102.766C45.2297 103.222 44.9897 103.646 44.5977 104.038C44.0217 104.614 43.2857 104.902 42.3897 104.902C41.4937 104.902 40.7577 104.614 40.1817 104.038C39.7897 103.646 39.5457 103.222 39.4497 102.766C39.3617 102.31 39.3177 101.574 39.3177 100.558C39.3177 99.5423 39.3617 98.8063 39.4497 98.3503C39.5457 97.8943 39.7897 97.4703 40.1817 97.0783C40.7577 96.5023 41.4937 96.2143 42.3897 96.2143C43.2857 96.2143 44.0217 96.5023 44.5977 97.0783C44.9897 97.4703 45.2297 97.8943 45.3177 98.3503ZM44.0697 102.37C44.1337 102.026 44.1657 101.422 44.1657 100.558C44.1657 99.6943 44.1337 99.0903 44.0697 98.7463C44.0057 98.3943 43.8697 98.1103 43.6617 97.8943C43.3257 97.5423 42.9017 97.3663 42.3897 97.3663C41.8777 97.3663 41.4537 97.5423 41.1177 97.8943C40.9097 98.1183 40.7737 98.4063 40.7097 98.7583C40.6457 99.1023 40.6137 99.7023 40.6137 100.558C40.6137 101.414 40.6457 102.014 40.7097 102.358C40.7737 102.702 40.9097 102.986 41.1177 103.21C41.4617 103.57 41.8857 103.75 42.3897 103.75C42.8937 103.75 43.3177 103.57 43.6617 103.21C43.8697 102.994 44.0057 102.714 44.0697 102.37ZM52.8475 104.83H47.3875V96.2863H52.8475V97.4503H48.6835V99.9463H52.2355V101.098H48.6835V103.666H52.8475V104.83ZM60.426 102.274C60.282 103.106 59.934 103.754 59.382 104.218C58.838 104.674 58.17 104.902 57.378 104.902C56.482 104.902 55.746 104.614 55.17 104.038C54.786 103.646 54.546 103.222 54.45 102.766C54.354 102.302 54.306 101.566 54.306 100.558C54.306 99.5503 54.354 98.8183 54.45 98.3623C54.546 97.8983 54.786 97.4703 55.17 97.0783C55.746 96.5023 56.482 96.2143 57.378 96.2143C58.178 96.2143 58.846 96.4463 59.382 96.9103C59.926 97.3663 60.274 98.0103 60.426 98.8423H59.106C59.01 98.3863 58.814 98.0263 58.518 97.7623C58.222 97.4983 57.842 97.3663 57.378 97.3663C56.866 97.3663 56.446 97.5423 56.118 97.8943C55.902 98.1183 55.762 98.4063 55.698 98.7583C55.634 99.1023 55.602 99.7023 55.602 100.558C55.602 101.414 55.634 102.018 55.698 102.37C55.762 102.714 55.902 102.998 56.118 103.222C56.446 103.574 56.866 103.75 57.378 103.75C57.842 103.75 58.222 103.618 58.518 103.354C58.822 103.09 59.026 102.73 59.13 102.274H60.426ZM68.3239 104.83H66.9439L66.3559 103.114H62.9839L62.3959 104.83H61.0159L64.1479 96.2863H65.1919L68.3239 104.83ZM65.9959 102.01L64.6999 98.2183L63.3679 102.01H65.9959ZM74.7559 97.0183C75.2599 97.5063 75.5119 98.1263 75.5119 98.8783C75.5119 99.6303 75.2599 100.25 74.7559 100.738C74.2599 101.218 73.5999 101.458 72.7759 101.458H70.8319V104.83H69.5359V96.2863H72.7759C73.5999 96.2863 74.2599 96.5303 74.7559 97.0183ZM73.8079 99.9343C74.0799 99.6783 74.2159 99.3263 74.2159 98.8783C74.2159 98.4303 74.0799 98.0823 73.8079 97.8343C73.5359 97.5783 73.1679 97.4503 72.7039 97.4503H70.8319V100.306H72.7039C73.1679 100.306 73.5359 100.182 73.8079 99.9343Z" fill="#272C35"/>
<path d="M30.0242 117.317H28.0082V119.333H26.8682V117.317H24.8522V116.177H26.8682V114.173H28.0082V116.177H30.0242V117.317ZM42.1735 120.017H40.8775V114.305L38.9095 118.469H37.9495L35.9335 114.305V120.017H34.6375V111.473H35.9335L38.4295 116.789L40.8775 111.473H42.1735V120.017ZM45.6952 120.017H44.3992V111.473H45.6952V120.017ZM53.8785 113.789C53.9585 114.261 53.9985 114.913 53.9985 115.745C53.9985 116.577 53.9585 117.233 53.8785 117.713C53.8065 118.185 53.6305 118.593 53.3505 118.937C52.7665 119.657 51.9585 120.017 50.9265 120.017H47.9265V111.473H50.9265C51.9585 111.473 52.7665 111.833 53.3505 112.553C53.6305 112.897 53.8065 113.309 53.8785 113.789ZM52.6185 117.401C52.6745 117.025 52.7025 116.473 52.7025 115.745C52.7025 115.017 52.6745 114.469 52.6185 114.101C52.5625 113.725 52.4385 113.429 52.2465 113.213C51.9105 112.821 51.4225 112.625 50.7825 112.625H49.2225V118.865H50.7825C51.4225 118.865 51.9105 118.669 52.2465 118.277C52.4385 118.061 52.5625 117.769 52.6185 117.401ZM61.2587 117.581C61.2587 118.357 60.9747 118.969 60.4067 119.417C59.8387 119.865 59.0987 120.089 58.1867 120.089C57.5307 120.089 56.9627 120.005 56.4827 119.837C56.0107 119.661 55.5707 119.369 55.1627 118.961L56.0147 118.109C56.5667 118.661 57.2987 118.937 58.2107 118.937C58.7707 118.937 59.2027 118.825 59.5067 118.601C59.8187 118.369 59.9747 118.041 59.9747 117.617C59.9747 117.217 59.8627 116.921 59.6387 116.729C59.4307 116.545 59.1187 116.425 58.7027 116.369L57.6947 116.225C56.9827 116.113 56.4467 115.885 56.0867 115.541C55.6627 115.157 55.4507 114.609 55.4507 113.897C55.4507 113.145 55.7067 112.541 56.2187 112.085C56.7307 111.629 57.4267 111.401 58.3067 111.401C58.8747 111.401 59.3667 111.477 59.7827 111.629C60.1987 111.781 60.5907 112.029 60.9587 112.373L60.1427 113.189C59.6787 112.749 59.0507 112.529 58.2587 112.529C57.7627 112.529 57.3787 112.653 57.1067 112.901C56.8427 113.141 56.7107 113.461 56.7107 113.861C56.7107 114.213 56.8147 114.477 57.0227 114.653C57.2387 114.845 57.5507 114.973 57.9587 115.037L58.9787 115.193C59.6827 115.305 60.2107 115.517 60.5627 115.829C61.0267 116.253 61.2587 116.837 61.2587 117.581ZM68.6849 113.537C68.7809 113.993 68.8289 114.729 68.8289 115.745C68.8289 116.761 68.7809 117.497 68.6849 117.953C68.5969 118.409 68.3569 118.833 67.9649 119.225C67.3889 119.801 66.6529 120.089 65.7569 120.089C64.8609 120.089 64.1249 119.801 63.5489 119.225C63.1569 118.833 62.9129 118.409 62.8169 117.953C62.7289 117.497 62.6849 116.761 62.6849 115.745C62.6849 114.729 62.7289 113.993 62.8169 113.537C62.9129 113.081 63.1569 112.657 63.5489 112.265C64.1249 111.689 64.8609 111.401 65.7569 111.401C66.6529 111.401 67.3889 111.689 67.9649 112.265C68.3569 112.657 68.5969 113.081 68.6849 113.537ZM67.4369 117.557C67.5009 117.213 67.5329 116.609 67.5329 115.745C67.5329 114.881 67.5009 114.277 67.4369 113.933C67.3729 113.581 67.2369 113.297 67.0289 113.081C66.6929 112.729 66.2689 112.553 65.7569 112.553C65.2449 112.553 64.8209 112.729 64.4849 113.081C64.2769 113.305 64.1409 113.593 64.0769 113.945C64.0129 114.289 63.9809 114.889 63.9809 115.745C63.9809 116.601 64.0129 117.201 64.0769 117.545C64.1409 117.889 64.2769 118.173 64.4849 118.397C64.8289 118.757 65.2529 118.937 65.7569 118.937C66.2609 118.937 66.6849 118.757 67.0289 118.397C67.2369 118.181 67.3729 117.901 67.4369 117.557ZM76.1667 120.017H70.7547V111.473H72.0507V118.853H76.1667V120.017ZM83.1053 120.017H77.6453V111.473H83.1053V112.637H78.9413V115.133H82.4933V116.285H78.9413V118.853H83.1053V120.017Z" fill="#272C35"/>
<path d="M26.6817 83.188C27.1857 83.676 27.4377 84.296 27.4377 85.048C27.4377 85.8 27.1857 86.42 26.6817 86.908C26.1857 87.388 25.5257 87.628 24.7017 87.628H22.7577V91H21.4617V82.456H24.7017C25.5257 82.456 26.1857 82.7 26.6817 83.188ZM25.7337 86.104C26.0057 85.848 26.1417 85.496 26.1417 85.048C26.1417 84.6 26.0057 84.252 25.7337 84.004C25.4617 83.748 25.0937 83.62 24.6297 83.62H22.7577V86.476H24.6297C25.0937 86.476 25.4617 86.352 25.7337 86.104ZM35.2366 91H33.7246L31.9246 87.4H30.3046V91H29.0086V82.456H32.3206C33.1206 82.456 33.7606 82.688 34.2406 83.152C34.7286 83.616 34.9726 84.216 34.9726 84.952C34.9726 85.536 34.8126 86.028 34.4926 86.428C34.1806 86.82 33.7726 87.084 33.2686 87.22L35.2366 91ZM33.2806 85.948C33.5446 85.708 33.6766 85.38 33.6766 84.964C33.6766 84.548 33.5446 84.22 33.2806 83.98C33.0166 83.74 32.6646 83.62 32.2246 83.62H30.3046V86.296H32.2246C32.6646 86.296 33.0166 86.18 33.2806 85.948ZM42.4427 84.52C42.5387 84.976 42.5867 85.712 42.5867 86.728C42.5867 87.744 42.5387 88.48 42.4427 88.936C42.3547 89.392 42.1147 89.816 41.7227 90.208C41.1467 90.784 40.4107 91.072 39.5147 91.072C38.6187 91.072 37.8827 90.784 37.3067 90.208C36.9147 89.816 36.6707 89.392 36.5747 88.936C36.4867 88.48 36.4427 87.744 36.4427 86.728C36.4427 85.712 36.4867 84.976 36.5747 84.52C36.6707 84.064 36.9147 83.64 37.3067 83.248C37.8827 82.672 38.6187 82.384 39.5147 82.384C40.4107 82.384 41.1467 82.672 41.7227 83.248C42.1147 83.64 42.3547 84.064 42.4427 84.52ZM41.1947 88.54C41.2587 88.196 41.2907 87.592 41.2907 86.728C41.2907 85.864 41.2587 85.26 41.1947 84.916C41.1307 84.564 40.9947 84.28 40.7867 84.064C40.4507 83.712 40.0267 83.536 39.5147 83.536C39.0027 83.536 38.5787 83.712 38.2427 84.064C38.0347 84.288 37.8987 84.576 37.8347 84.928C37.7707 85.272 37.7387 85.872 37.7387 86.728C37.7387 87.584 37.7707 88.184 37.8347 88.528C37.8987 88.872 38.0347 89.156 38.2427 89.38C38.5867 89.74 39.0107 89.92 39.5147 89.92C40.0187 89.92 40.4427 89.74 40.7867 89.38C40.9947 89.164 41.1307 88.884 41.1947 88.54ZM49.5221 83.62H47.1701V91H45.8741V83.62H43.5221V82.456H49.5221V83.62ZM56.453 91H50.993V82.456H56.453V83.62H52.289V86.116H55.841V87.268H52.289V89.836H56.453V91ZM64.0314 88.444C63.8874 89.276 63.5394 89.924 62.9874 90.388C62.4434 90.844 61.7754 91.072 60.9834 91.072C60.0874 91.072 59.3514 90.784 58.7754 90.208C58.3914 89.816 58.1514 89.392 58.0554 88.936C57.9594 88.472 57.9114 87.736 57.9114 86.728C57.9114 85.72 57.9594 84.988 58.0554 84.532C58.1514 84.068 58.3914 83.64 58.7754 83.248C59.3514 82.672 60.0874 82.384 60.9834 82.384C61.7834 82.384 62.4514 82.616 62.9874 83.08C63.5314 83.536 63.8794 84.18 64.0314 85.012H62.7114C62.6154 84.556 62.4194 84.196 62.1234 83.932C61.8274 83.668 61.4474 83.536 60.9834 83.536C60.4714 83.536 60.0514 83.712 59.7234 84.064C59.5074 84.288 59.3674 84.576 59.3034 84.928C59.2394 85.272 59.2074 85.872 59.2074 86.728C59.2074 87.584 59.2394 88.188 59.3034 88.54C59.3674 88.884 59.5074 89.168 59.7234 89.392C60.0514 89.744 60.4714 89.92 60.9834 89.92C61.4474 89.92 61.8274 89.788 62.1234 89.524C62.4274 89.26 62.6314 88.9 62.7354 88.444H64.0314ZM70.7682 83.62H68.4162V91H67.1202V83.62H64.7682V82.456H70.7682V83.62ZM73.535 91H72.239V82.456H73.535V91ZM81.3584 82.456L78.5264 91H77.5184L74.7104 82.456H76.0544L78.0224 88.672L79.9904 82.456H81.3584ZM87.9998 91H82.5398V82.456H87.9998V83.62H83.8358V86.116H87.3878V87.268H83.8358V89.836H87.9998V91Z" fill="#272C35"/>
</svg>
