<svg width="102" height="134" viewBox="0 0 102 134" fill="none" xmlns="http://www.w3.org/2000/svg">
<rect x="4" width="92.4915" height="125.339" fill="white"/>
<path d="M28.289 14.2109C28.289 14.2109 20.2108 14.2109 20.2108 22.2891V66.9217C20.2108 66.9217 20.2108 74.9999 28.289 74.9999H72.9216C72.9216 74.9999 80.9998 74.9999 80.9998 66.9217V22.2891C80.9998 22.2891 80.9998 14.2109 72.9216 14.2109H28.289Z" fill="white"/>
<path d="M42.4672 23.9983L38.7653 46.6293L39.11 46.7342L47.533 25.3921L42.4672 23.9983Z" fill="#EB5B41"/>
<path d="M26.9402 26.1416L36.8918 46.8092L37.2216 46.6893L31.8861 24.373L26.9402 26.1416Z" fill="#EB5B41"/>
<path d="M21.4098 40.1543L35.453 48.0227L35.6479 47.7379L21.7096 35.3733" fill="#EB5B41"/>
<path d="M35.3332 67.2224C35.1084 67.2224 34.8836 67.1624 34.6887 67.0575C34.389 66.8777 34.1641 66.5929 34.0742 66.2632C30.6571 53.8536 39.4097 49.4773 45.7944 46.285C46.7536 45.8054 47.6529 45.3558 48.4622 44.9061C54.652 41.459 55.1315 36.3483 54.5171 34.1451L49.4813 15.9204L52.0142 15.2161L57.0349 33.4407C57.8293 36.3483 57.3347 42.9578 49.7211 47.1992C48.8668 47.6788 47.9376 48.1434 46.9484 48.638C41.0134 51.6055 34.329 54.9477 36.2774 64.2999L69.6094 55.0976L70.8084 51.9652C70.9433 51.5905 71.2431 51.3058 71.6328 51.1859C72.0074 51.066 72.4271 51.1109 72.7568 51.3357L75.9191 53.359L79.1714 52.4598L79.8758 54.9926L76.054 56.0418C75.6943 56.1467 75.3047 56.0867 74.9899 55.8769L72.6968 54.4082L71.8425 56.6563C71.6926 57.0459 71.363 57.3457 70.9583 57.4506L35.6779 67.1924C35.558 67.2224 35.4381 67.2374 35.3332 67.2374" fill="#272C35"/>
<path d="M79.6706 47.8061L34.5542 60.2671L34.9053 61.5384L80.0218 49.0774L79.6706 47.8061Z" fill="#272C35"/>
<path d="M49.8408 56.7912C48.0573 50.3466 44.0557 49.6422 43.8759 49.6122L44.2355 47.0044C44.4753 47.0344 50.0956 47.8737 52.3587 56.0868L49.8258 56.7912H49.8408Z" fill="#272C35"/>
<path d="M73.7309 74.9853H27.4497C23.4481 74.9853 20.1958 71.733 20.1958 67.7464V21.4652C20.1958 17.4636 23.4481 14.2263 27.4497 14.2263H73.7309C77.7325 14.2263 80.9698 17.4786 80.9698 21.4652V67.7464C80.9698 71.748 77.7175 74.9853 73.7309 74.9853ZM27.4497 16.8491C24.9018 16.8491 22.8336 18.9174 22.8336 21.4652V67.7464C22.8336 70.2942 24.9018 72.3625 27.4497 72.3625H73.7309C76.2787 72.3625 78.347 70.2942 78.347 67.7464V21.4652C78.347 18.9174 76.2787 16.8491 73.7309 16.8491H27.4497Z" fill="#272C35"/>
<path d="M34.3932 101.433H32.0412V108.813H30.7452V101.433H28.3932V100.269H34.3932V101.433ZM41.3177 102.333C41.4137 102.789 41.4617 103.525 41.4617 104.541C41.4617 105.557 41.4137 106.293 41.3177 106.749C41.2297 107.205 40.9897 107.629 40.5977 108.021C40.0217 108.597 39.2857 108.885 38.3897 108.885C37.4937 108.885 36.7577 108.597 36.1817 108.021C35.7897 107.629 35.5457 107.205 35.4497 106.749C35.3617 106.293 35.3177 105.557 35.3177 104.541C35.3177 103.525 35.3617 102.789 35.4497 102.333C35.5457 101.877 35.7897 101.453 36.1817 101.061C36.7577 100.485 37.4937 100.197 38.3897 100.197C39.2857 100.197 40.0217 100.485 40.5977 101.061C40.9897 101.453 41.2297 101.877 41.3177 102.333ZM40.0697 106.353C40.1337 106.009 40.1657 105.405 40.1657 104.541C40.1657 103.677 40.1337 103.073 40.0697 102.729C40.0057 102.377 39.8697 102.093 39.6617 101.877C39.3257 101.525 38.9017 101.349 38.3897 101.349C37.8777 101.349 37.4537 101.525 37.1177 101.877C36.9097 102.101 36.7737 102.389 36.7097 102.741C36.6457 103.085 36.6137 103.685 36.6137 104.541C36.6137 105.397 36.6457 105.997 36.7097 106.341C36.7737 106.685 36.9097 106.969 37.1177 107.193C37.4617 107.553 37.8857 107.733 38.3897 107.733C38.8937 107.733 39.3177 107.553 39.6617 107.193C39.8697 106.977 40.0057 106.697 40.0697 106.353ZM48.8475 108.813H43.3875V100.269H48.8475V101.433H44.6835V103.929H48.2355V105.081H44.6835V107.649H48.8475V108.813ZM56.426 106.257C56.282 107.089 55.934 107.737 55.382 108.201C54.838 108.657 54.17 108.885 53.378 108.885C52.482 108.885 51.746 108.597 51.17 108.021C50.786 107.629 50.546 107.205 50.45 106.749C50.354 106.285 50.306 105.549 50.306 104.541C50.306 103.533 50.354 102.801 50.45 102.345C50.546 101.881 50.786 101.453 51.17 101.061C51.746 100.485 52.482 100.197 53.378 100.197C54.178 100.197 54.846 100.429 55.382 100.893C55.926 101.349 56.274 101.993 56.426 102.825H55.106C55.01 102.369 54.814 102.009 54.518 101.745C54.222 101.481 53.842 101.349 53.378 101.349C52.866 101.349 52.446 101.525 52.118 101.877C51.902 102.101 51.762 102.389 51.698 102.741C51.634 103.085 51.602 103.685 51.602 104.541C51.602 105.397 51.634 106.001 51.698 106.353C51.762 106.697 51.902 106.981 52.118 107.205C52.446 107.557 52.866 107.733 53.378 107.733C53.842 107.733 54.222 107.601 54.518 107.337C54.822 107.073 55.026 106.713 55.13 106.257H56.426ZM64.3239 108.813H62.9439L62.3559 107.097H58.9839L58.3959 108.813H57.0159L60.1479 100.269H61.1919L64.3239 108.813ZM61.9959 105.993L60.6999 102.201L59.3679 105.993H61.9959ZM70.7559 101.001C71.2599 101.489 71.5119 102.109 71.5119 102.861C71.5119 103.613 71.2599 104.233 70.7559 104.721C70.2599 105.201 69.5999 105.441 68.7759 105.441H66.8319V108.813H65.5359V100.269H68.7759C69.5999 100.269 70.2599 100.513 70.7559 101.001ZM69.8079 103.917C70.0799 103.661 70.2159 103.309 70.2159 102.861C70.2159 102.413 70.0799 102.065 69.8079 101.817C69.5359 101.561 69.1679 101.433 68.7039 101.433H66.8319V104.289H68.7039C69.1679 104.289 69.5359 104.165 69.8079 103.917Z" fill="#272C35"/>
<path d="M22.6817 87.1712C23.1857 87.6592 23.4377 88.2792 23.4377 89.0312C23.4377 89.7832 23.1857 90.4032 22.6817 90.8912C22.1857 91.3712 21.5257 91.6112 20.7017 91.6112H18.7577V94.9832H17.4617V86.4392H20.7017C21.5257 86.4392 22.1857 86.6832 22.6817 87.1712ZM21.7337 90.0872C22.0057 89.8312 22.1417 89.4792 22.1417 89.0312C22.1417 88.5832 22.0057 88.2352 21.7337 87.9872C21.4617 87.7312 21.0937 87.6032 20.6297 87.6032H18.7577V90.4592H20.6297C21.0937 90.4592 21.4617 90.3352 21.7337 90.0872ZM31.2366 94.9832H29.7246L27.9246 91.3832H26.3046V94.9832H25.0086V86.4392H28.3206C29.1206 86.4392 29.7606 86.6712 30.2406 87.1352C30.7286 87.5992 30.9726 88.1992 30.9726 88.9352C30.9726 89.5192 30.8126 90.0112 30.4926 90.4112C30.1806 90.8032 29.7726 91.0672 29.2686 91.2032L31.2366 94.9832ZM29.2806 89.9312C29.5446 89.6912 29.6766 89.3632 29.6766 88.9472C29.6766 88.5312 29.5446 88.2032 29.2806 87.9632C29.0166 87.7232 28.6646 87.6032 28.2246 87.6032H26.3046V90.2792H28.2246C28.6646 90.2792 29.0166 90.1632 29.2806 89.9312ZM38.4427 88.5032C38.5387 88.9592 38.5867 89.6952 38.5867 90.7112C38.5867 91.7272 38.5387 92.4632 38.4427 92.9192C38.3547 93.3752 38.1147 93.7992 37.7227 94.1912C37.1467 94.7672 36.4107 95.0552 35.5147 95.0552C34.6187 95.0552 33.8827 94.7672 33.3067 94.1912C32.9147 93.7992 32.6707 93.3752 32.5747 92.9192C32.4867 92.4632 32.4427 91.7272 32.4427 90.7112C32.4427 89.6952 32.4867 88.9592 32.5747 88.5032C32.6707 88.0472 32.9147 87.6232 33.3067 87.2312C33.8827 86.6552 34.6187 86.3672 35.5147 86.3672C36.4107 86.3672 37.1467 86.6552 37.7227 87.2312C38.1147 87.6232 38.3547 88.0472 38.4427 88.5032ZM37.1947 92.5232C37.2587 92.1792 37.2907 91.5752 37.2907 90.7112C37.2907 89.8472 37.2587 89.2432 37.1947 88.8992C37.1307 88.5472 36.9947 88.2632 36.7867 88.0472C36.4507 87.6952 36.0267 87.5192 35.5147 87.5192C35.0027 87.5192 34.5787 87.6952 34.2427 88.0472C34.0347 88.2712 33.8987 88.5592 33.8347 88.9112C33.7707 89.2552 33.7387 89.8552 33.7387 90.7112C33.7387 91.5672 33.7707 92.1672 33.8347 92.5112C33.8987 92.8552 34.0347 93.1392 34.2427 93.3632C34.5867 93.7232 35.0107 93.9032 35.5147 93.9032C36.0187 93.9032 36.4427 93.7232 36.7867 93.3632C36.9947 93.1472 37.1307 92.8672 37.1947 92.5232ZM45.5221 87.6032H43.1701V94.9832H41.8741V87.6032H39.5221V86.4392H45.5221V87.6032ZM52.453 94.9832H46.993V86.4392H52.453V87.6032H48.289V90.0992H51.841V91.2512H48.289V93.8192H52.453V94.9832ZM60.0314 92.4272C59.8874 93.2592 59.5394 93.9072 58.9874 94.3712C58.4434 94.8272 57.7754 95.0552 56.9834 95.0552C56.0874 95.0552 55.3514 94.7672 54.7754 94.1912C54.3914 93.7992 54.1514 93.3752 54.0554 92.9192C53.9594 92.4552 53.9114 91.7192 53.9114 90.7112C53.9114 89.7032 53.9594 88.9712 54.0554 88.5152C54.1514 88.0512 54.3914 87.6232 54.7754 87.2312C55.3514 86.6552 56.0874 86.3672 56.9834 86.3672C57.7834 86.3672 58.4514 86.5992 58.9874 87.0632C59.5314 87.5192 59.8794 88.1632 60.0314 88.9952H58.7114C58.6154 88.5392 58.4194 88.1792 58.1234 87.9152C57.8274 87.6512 57.4474 87.5192 56.9834 87.5192C56.4714 87.5192 56.0514 87.6952 55.7234 88.0472C55.5074 88.2712 55.3674 88.5592 55.3034 88.9112C55.2394 89.2552 55.2074 89.8552 55.2074 90.7112C55.2074 91.5672 55.2394 92.1712 55.3034 92.5232C55.3674 92.8672 55.5074 93.1512 55.7234 93.3752C56.0514 93.7272 56.4714 93.9032 56.9834 93.9032C57.4474 93.9032 57.8274 93.7712 58.1234 93.5072C58.4274 93.2432 58.6314 92.8832 58.7354 92.4272H60.0314ZM66.7682 87.6032H64.4162V94.9832H63.1202V87.6032H60.7682V86.4392H66.7682V87.6032ZM69.535 94.9832H68.239V86.4392H69.535V94.9832ZM77.3584 86.4392L74.5264 94.9832H73.5184L70.7104 86.4392H72.0544L74.0224 92.6552L75.9904 86.4392H77.3584ZM83.9998 94.9832H78.5398V86.4392H83.9998V87.6032H79.8358V90.0992H83.3878V91.2512H79.8358V93.8192H83.9998V94.9832Z" fill="#272C35"/>
</svg>
