<svg width="102" height="134" viewBox="0 0 102 134" fill="none" xmlns="http://www.w3.org/2000/svg">
<rect x="4" width="92.4915" height="125.339" fill="white"/>
<path d="M31.0403 102.333C31.1363 102.789 31.1843 103.525 31.1843 104.541C31.1843 105.557 31.1363 106.293 31.0403 106.749C30.9523 107.205 30.7123 107.629 30.3203 108.021C29.7443 108.597 29.0083 108.885 28.1123 108.885C27.2163 108.885 26.4803 108.597 25.9043 108.021C25.5123 107.629 25.2683 107.205 25.1723 106.749C25.0843 106.293 25.0403 105.557 25.0403 104.541C25.0403 103.525 25.0843 102.789 25.1723 102.333C25.2683 101.877 25.5123 101.453 25.9043 101.061C26.4803 100.485 27.2163 100.197 28.1123 100.197C29.0083 100.197 29.7443 100.485 30.3203 101.061C30.7123 101.453 30.9523 101.877 31.0403 102.333ZM29.7923 106.353C29.8563 106.009 29.8883 105.405 29.8883 104.541C29.8883 103.677 29.8563 103.073 29.7923 102.729C29.7283 102.377 29.5923 102.093 29.3843 101.877C29.0483 101.525 28.6243 101.349 28.1123 101.349C27.6003 101.349 27.1763 101.525 26.8403 101.877C26.6323 102.101 26.4963 102.389 26.4323 102.741C26.3683 103.085 26.3363 103.685 26.3363 104.541C26.3363 105.397 26.3683 105.997 26.4323 106.341C26.4963 106.685 26.6323 106.969 26.8403 107.193C27.1843 107.553 27.6083 107.733 28.1123 107.733C28.6163 107.733 29.0403 107.553 29.3843 107.193C29.5923 106.977 29.7283 106.697 29.7923 106.353ZM39.1101 105.933C39.1101 106.805 38.8181 107.517 38.2341 108.069C37.6501 108.613 36.9181 108.885 36.0381 108.885C35.1581 108.885 34.4261 108.613 33.8421 108.069C33.2661 107.517 32.9781 106.805 32.9781 105.933V100.269H34.2741V105.873C34.2741 106.441 34.4341 106.893 34.7541 107.229C35.0741 107.557 35.5021 107.721 36.0381 107.721C36.5741 107.721 37.0021 107.557 37.3221 107.229C37.6501 106.893 37.8141 106.441 37.8141 105.873V100.269H39.1101V105.933ZM46.4518 101.433H44.0998V108.813H42.8038V101.433H40.4518V100.269H46.4518V101.433ZM53.2626 106.377C53.2626 107.153 52.9786 107.765 52.4106 108.213C51.8426 108.661 51.1026 108.885 50.1906 108.885C49.5346 108.885 48.9666 108.801 48.4866 108.633C48.0146 108.457 47.5746 108.165 47.1666 107.757L48.0186 106.905C48.5706 107.457 49.3026 107.733 50.2146 107.733C50.7746 107.733 51.2066 107.621 51.5106 107.397C51.8226 107.165 51.9786 106.837 51.9786 106.413C51.9786 106.013 51.8666 105.717 51.6426 105.525C51.4346 105.341 51.1226 105.221 50.7066 105.165L49.6986 105.021C48.9866 104.909 48.4506 104.681 48.0906 104.337C47.6666 103.953 47.4546 103.405 47.4546 102.693C47.4546 101.941 47.7106 101.337 48.2226 100.881C48.7346 100.425 49.4306 100.197 50.3106 100.197C50.8786 100.197 51.3706 100.273 51.7866 100.425C52.2026 100.577 52.5946 100.825 52.9626 101.169L52.1466 101.985C51.6826 101.545 51.0546 101.325 50.2626 101.325C49.7666 101.325 49.3826 101.449 49.1106 101.697C48.8466 101.937 48.7146 102.257 48.7146 102.657C48.7146 103.009 48.8186 103.273 49.0266 103.449C49.2426 103.641 49.5546 103.769 49.9626 103.833L50.9826 103.989C51.6866 104.101 52.2146 104.313 52.5666 104.625C53.0306 105.049 53.2626 105.633 53.2626 106.377ZM60.6888 102.333C60.7848 102.789 60.8328 103.525 60.8328 104.541C60.8328 105.557 60.7848 106.293 60.6888 106.749C60.6008 107.205 60.3608 107.629 59.9688 108.021C59.3928 108.597 58.6568 108.885 57.7608 108.885C56.8648 108.885 56.1288 108.597 55.5528 108.021C55.1608 107.629 54.9168 107.205 54.8208 106.749C54.7328 106.293 54.6888 105.557 54.6888 104.541C54.6888 103.525 54.7328 102.789 54.8208 102.333C54.9168 101.877 55.1608 101.453 55.5528 101.061C56.1288 100.485 56.8648 100.197 57.7608 100.197C58.6568 100.197 59.3928 100.485 59.9688 101.061C60.3608 101.453 60.6008 101.877 60.6888 102.333ZM59.4408 106.353C59.5048 106.009 59.5368 105.405 59.5368 104.541C59.5368 103.677 59.5048 103.073 59.4408 102.729C59.3768 102.377 59.2408 102.093 59.0328 101.877C58.6968 101.525 58.2728 101.349 57.7608 101.349C57.2488 101.349 56.8248 101.525 56.4888 101.877C56.2808 102.101 56.1448 102.389 56.0808 102.741C56.0168 103.085 55.9848 103.685 55.9848 104.541C55.9848 105.397 56.0168 105.997 56.0808 106.341C56.1448 106.685 56.2808 106.969 56.4888 107.193C56.8328 107.553 57.2568 107.733 57.7608 107.733C58.2648 107.733 58.6888 107.553 59.0328 107.193C59.2408 106.977 59.3768 106.697 59.4408 106.353ZM68.1706 108.813H62.7586V100.269H64.0546V107.649H68.1706V108.813ZM75.1092 108.813H69.6492V100.269H75.1092V101.433H70.9452V103.929H74.4972V105.081H70.9452V107.649H75.1092V108.813Z" fill="#272C35"/>
<path d="M11.6669 92.5472C11.6669 93.3232 11.3829 93.9352 10.8149 94.3832C10.2469 94.8312 9.50694 95.0552 8.59494 95.0552C7.93894 95.0552 7.37094 94.9712 6.89094 94.8032C6.41894 94.6272 5.97894 94.3352 5.57094 93.9272L6.42294 93.0752C6.97494 93.6272 7.70694 93.9032 8.61894 93.9032C9.17894 93.9032 9.61094 93.7912 9.91494 93.5672C10.2269 93.3352 10.3829 93.0072 10.3829 92.5832C10.3829 92.1832 10.2709 91.8872 10.0469 91.6952C9.83894 91.5112 9.52694 91.3912 9.11094 91.3352L8.10294 91.1912C7.39094 91.0792 6.85494 90.8512 6.49494 90.5072C6.07094 90.1232 5.85894 89.5752 5.85894 88.8632C5.85894 88.1112 6.11494 87.5072 6.62694 87.0512C7.13894 86.5952 7.83494 86.3672 8.71494 86.3672C9.28294 86.3672 9.77494 86.4432 10.1909 86.5952C10.6069 86.7472 10.9989 86.9952 11.3669 87.3392L10.5509 88.1552C10.0869 87.7152 9.45894 87.4952 8.66694 87.4952C8.17094 87.4952 7.78694 87.6192 7.51494 87.8672C7.25094 88.1072 7.11894 88.4272 7.11894 88.8272C7.11894 89.1792 7.22294 89.4432 7.43094 89.6192C7.64694 89.8112 7.95894 89.9392 8.36694 90.0032L9.38694 90.1592C10.0909 90.2712 10.6189 90.4832 10.9709 90.7952C11.4349 91.2192 11.6669 91.8032 11.6669 92.5472ZM18.8171 94.9832H13.4051V86.4392H14.7011V93.8192H18.8171V94.9832ZM21.5917 94.9832H20.2957V86.4392H21.5917V94.9832ZM29.043 87.1712C29.547 87.6592 29.799 88.2792 29.799 89.0312C29.799 89.7832 29.547 90.4032 29.043 90.8912C28.547 91.3712 27.887 91.6112 27.063 91.6112H25.119V94.9832H23.823V86.4392H27.063C27.887 86.4392 28.547 86.6832 29.043 87.1712ZM28.095 90.0872C28.367 89.8312 28.503 89.4792 28.503 89.0312C28.503 88.5832 28.367 88.2352 28.095 87.9872C27.823 87.7312 27.455 87.6032 26.991 87.6032H25.119V90.4592H26.991C27.455 90.4592 27.823 90.3352 28.095 90.0872ZM40.4807 94.9832H38.9687L37.1687 91.3832H35.5487V94.9832H34.2527V86.4392H37.5647C38.3647 86.4392 39.0047 86.6712 39.4847 87.1352C39.9727 87.5992 40.2167 88.1992 40.2167 88.9352C40.2167 89.5192 40.0567 90.0112 39.7367 90.4112C39.4247 90.8032 39.0167 91.0672 38.5127 91.2032L40.4807 94.9832ZM38.5247 89.9312C38.7887 89.6912 38.9207 89.3632 38.9207 88.9472C38.9207 88.5312 38.7887 88.2032 38.5247 87.9632C38.2607 87.7232 37.9087 87.6032 37.4687 87.6032H35.5487V90.2792H37.4687C37.9087 90.2792 38.2607 90.1632 38.5247 89.9312ZM47.576 94.9832H42.116V86.4392H47.576V87.6032H43.412V90.0992H46.964V91.2512H43.412V93.8192H47.576V94.9832ZM54.6865 92.5472C54.6865 93.3232 54.4025 93.9352 53.8345 94.3832C53.2665 94.8312 52.5265 95.0552 51.6145 95.0552C50.9585 95.0552 50.3905 94.9712 49.9105 94.8032C49.4385 94.6272 48.9985 94.3352 48.5905 93.9272L49.4425 93.0752C49.9945 93.6272 50.7265 93.9032 51.6385 93.9032C52.1985 93.9032 52.6305 93.7912 52.9345 93.5672C53.2465 93.3352 53.4025 93.0072 53.4025 92.5832C53.4025 92.1832 53.2905 91.8872 53.0665 91.6952C52.8585 91.5112 52.5465 91.3912 52.1305 91.3352L51.1225 91.1912C50.4105 91.0792 49.8745 90.8512 49.5145 90.5072C49.0905 90.1232 48.8785 89.5752 48.8785 88.8632C48.8785 88.1112 49.1345 87.5072 49.6465 87.0512C50.1585 86.5952 50.8545 86.3672 51.7345 86.3672C52.3025 86.3672 52.7945 86.4432 53.2105 86.5952C53.6265 86.7472 54.0185 86.9952 54.3865 87.3392L53.5705 88.1552C53.1065 87.7152 52.4785 87.4952 51.6865 87.4952C51.1905 87.4952 50.8065 87.6192 50.5345 87.8672C50.2705 88.1072 50.1385 88.4272 50.1385 88.8272C50.1385 89.1792 50.2425 89.4432 50.4505 89.6192C50.6665 89.8112 50.9785 89.9392 51.3865 90.0032L52.4065 90.1592C53.1105 90.2712 53.6385 90.4832 53.9905 90.7952C54.4545 91.2192 54.6865 91.8032 54.6865 92.5472ZM57.7206 94.9832H56.4246V86.4392H57.7206V94.9832ZM65.2919 92.5472C65.2919 93.3232 65.0079 93.9352 64.4399 94.3832C63.8719 94.8312 63.1319 95.0552 62.2199 95.0552C61.5639 95.0552 60.9959 94.9712 60.5159 94.8032C60.0439 94.6272 59.6039 94.3352 59.1959 93.9272L60.0479 93.0752C60.5999 93.6272 61.3319 93.9032 62.2439 93.9032C62.8039 93.9032 63.2359 93.7912 63.5399 93.5672C63.8519 93.3352 64.0079 93.0072 64.0079 92.5832C64.0079 92.1832 63.8959 91.8872 63.6719 91.6952C63.4639 91.5112 63.1519 91.3912 62.7359 91.3352L61.7279 91.1912C61.0159 91.0792 60.4799 90.8512 60.1199 90.5072C59.6959 90.1232 59.4839 89.5752 59.4839 88.8632C59.4839 88.1112 59.7399 87.5072 60.2519 87.0512C60.7639 86.5952 61.4599 86.3672 62.3399 86.3672C62.9079 86.3672 63.3999 86.4432 63.8159 86.5952C64.2319 86.7472 64.6239 86.9952 64.9919 87.3392L64.1759 88.1552C63.7119 87.7152 63.0839 87.4952 62.2919 87.4952C61.7959 87.4952 61.4119 87.6192 61.1399 87.8672C60.8759 88.1072 60.7439 88.4272 60.7439 88.8272C60.7439 89.1792 60.8479 89.4432 61.0559 89.6192C61.2719 89.8112 61.5839 89.9392 61.9919 90.0032L63.0119 90.1592C63.7159 90.2712 64.2439 90.4832 64.5959 90.7952C65.0599 91.2192 65.2919 91.8032 65.2919 92.5472ZM72.2741 87.6032H69.9221V94.9832H68.6261V87.6032H66.2741V86.4392H72.2741V87.6032ZM79.3181 94.9832H77.9381L77.3501 93.2672H73.9781L73.3901 94.9832H72.0101L75.1421 86.4392H76.1861L79.3181 94.9832ZM76.9901 92.1632L75.6941 88.3712L74.3621 92.1632H76.9901ZM86.9621 94.9832H85.7741L81.8261 88.9712V94.9832H80.5301V86.4392H81.7181L85.6661 92.4392V86.4392H86.9621V94.9832ZM94.4342 87.6032H92.0822V94.9832H90.7862V87.6032H88.4342V86.4392H94.4342V87.6032Z" fill="#272C35"/>
<path d="M27.3366 15.5593H74.9024C78.2604 15.5593 81.0022 18.2857 81.0022 21.6591V69.2249C81.0022 72.5829 78.2758 75.3247 74.9024 75.3247H27.3366C23.9786 75.3247 21.2368 72.5983 21.2368 69.2249V21.6591C21.2368 18.3011 23.9632 15.5593 27.3366 15.5593Z" fill="#FCF29B"/>
<path d="M37.0099 67.9459C33.4825 67.9459 30.6791 66.7444 29.3082 65.6046L28.5072 59.4586C30.5096 61.3995 33.2361 62.8628 36.363 62.8628C39.7209 62.8628 41.8928 60.999 41.8928 57.4562C41.8928 53.9134 39.8133 50.6479 36.6094 47.2283C32.3581 42.6843 29.3082 38.6178 29.3082 34.0737C29.3082 28.3899 33.159 24.2463 39.8904 24.2463C43.0173 24.2463 45.4202 25.2476 46.3906 26.0486L45.6666 31.0547C44.7886 30.1921 42.7862 29.1908 40.5373 29.1908C37.6569 29.1908 35.7314 30.9314 35.7314 33.7349C35.7314 36.338 37.4874 39.2185 40.3833 42.3454C45.3586 47.6904 48.5625 51.7569 48.5625 57.0403C48.5625 63.9872 44.3111 67.9305 37.0253 67.9305" fill="#272C35"/>
<path d="M59.7762 67.9461C57.2963 67.9461 54.8933 67.2837 53.5995 66.4057L52.8755 61.0607C54.4774 62.4008 56.4799 63.2635 58.7288 63.2635C62.5026 63.2635 65.2291 59.8593 65.2291 54.5759C65.2291 49.2925 62.5026 45.7651 58.8212 45.7651C56.7418 45.7651 55.1398 46.1656 53.9229 46.828L54.4004 24.7856H69.465L68.9105 29.3913H60.5002L60.2537 41.3443C60.7312 41.2827 61.1317 41.2827 61.6246 41.2827C67.2315 41.2827 71.6369 46.6277 71.6369 54.5759C71.6369 62.5241 67.709 67.9307 59.7762 67.9307" fill="#272C35"/>
<path d="M22.5702 14.0149C22.5702 14.0149 20.0149 14.0149 20.0149 16.5703V74.5919C20.0149 74.5919 20.0149 77.1473 22.5702 77.1473H78.3372C78.3372 77.1473 80.8926 77.1473 80.8926 74.5919V16.5703C80.8926 16.5703 80.8925 14.0149 78.3372 14.0149H22.5702Z" fill="white"/>
<path d="M21.5784 28.1448L21.1575 68.6848L23.2469 71.9016L27.2603 73.57H74.4593L77.8564 71.9016L21.5784 28.1448Z" fill="#DCDDDE"/>
<path d="M45.9445 74.1112H47.598V48.8281L45.9445 47.5504V74.1112ZM41.0442 74.1112H42.6977V45.0101L41.0442 43.7324V74.1112ZM36.144 74.1112H37.7974V41.1921L36.144 39.9145V74.1112ZM26.3284 74.1112H27.9668V33.5711L26.3284 32.2935V74.1112ZM31.2287 74.1112H32.8671V37.3741L31.2287 36.0964V74.1112ZM65.5757 74.1112H67.2292V64.0851L65.5757 62.8074V74.1262V74.1112ZM70.476 66.6104V74.1112H72.1294V67.8881L70.476 66.6104ZM55.7601 74.1112H57.4136V56.4491L55.7601 55.1714V74.1112ZM60.6604 74.1112H62.3138V60.2671L60.6604 58.9895V74.1112ZM50.8448 74.1112H52.4833V52.6311L50.8448 51.3534V74.1112Z" fill="#272C35"/>
<path d="M22.3887 27.3876L21.3644 28.6855L76.681 72.3407L77.7054 71.0427L22.3887 27.3876Z" fill="#272C35"/>
<path d="M68.7174 64.6715C68.4318 64.6715 68.1462 64.5812 67.9057 64.4009L58.4509 57.0655C58.1503 56.84 57.9699 56.4943 57.9398 56.1185L57.7444 53.3978L55.4296 54.0592C55.0237 54.1794 54.5878 54.0892 54.2571 53.8337L25.2763 31.3616C24.7051 30.9107 24.5999 30.0839 25.0358 29.5127C32.9424 19.3214 41.7058 23.7256 48.1092 26.9273C49.0712 27.4083 49.9731 27.8592 50.8149 28.235C57.2935 31.1211 61.6827 28.4455 63.0806 26.6417L72.5054 14.4812L74.5948 16.0896L65.17 28.2501C63.9524 29.8284 61.8781 31.1211 59.6234 31.7224C56.587 32.5341 53.1598 32.1583 49.7477 30.6401C48.8458 30.2342 47.9138 29.7683 46.9217 29.2722C40.9843 26.296 34.2952 22.9289 27.9519 30.099L55.3243 51.3235L58.5561 50.4065C58.9319 50.3013 59.3528 50.3614 59.6685 50.6019C59.9992 50.8274 60.1946 51.1882 60.2246 51.579L60.4952 55.3369L68.6423 61.6501C69.92 60.5228 72.4903 58.1478 74.2641 55.6676C75.5117 53.9389 76.5037 51.0679 77.3906 48.5577C77.7063 47.6408 78.0219 46.7539 78.3225 45.9572L80.7877 46.9042C80.4871 47.6708 80.1865 48.5276 79.8708 49.4144C78.9238 52.1051 77.8566 55.1565 76.3985 57.2008C73.753 60.9136 69.6644 64.2355 69.499 64.3708C69.2585 64.5662 68.9579 64.6715 68.6723 64.6715" fill="#272C35"/>
<path d="M30.0819 26.3109L29.2714 27.3562L72.0233 60.5061L72.8339 59.4607L30.0819 26.3109Z" fill="#272C35"/>
<path d="M73.6324 74.8927H27.2752C23.2768 74.8927 20.015 71.6309 20.015 67.6325V21.2603C20.015 17.2619 23.2768 14 27.2752 14H73.6324C77.6308 14 80.8927 17.2619 80.8927 21.2603V67.6325C80.8927 71.6309 77.6308 74.8927 73.6324 74.8927ZM27.2752 16.6456C24.7199 16.6456 22.6455 18.7199 22.6455 21.2753V67.6475C22.6455 70.2029 24.7199 72.2622 27.2752 72.2622H73.6324C76.1878 72.2622 78.2622 70.1878 78.2622 67.6475V21.2753C78.2622 18.7199 76.1878 16.6456 73.6324 16.6456H27.2752Z" fill="#272C35"/>
<path d="M64.0793 52.803H20V74.8937H64.0385L64.0793 52.803Z" fill="#F28A3B"/>
<path d="M33.5278 61.0484C33.451 60.3993 33.1392 59.8954 32.5926 59.5367C32.046 59.178 31.3756 58.9986 30.5813 58.9986C30.0005 58.9986 29.4924 59.0926 29.0568 59.2805C28.6255 59.4684 28.2881 59.7267 28.0447 60.0555C27.8056 60.3844 27.686 60.758 27.686 61.1765C27.686 61.5267 27.7693 61.8277 27.9358 62.0797C28.1067 62.3274 28.3244 62.5345 28.5892 62.701C28.854 62.8633 29.1315 62.9978 29.4219 63.1046C29.7123 63.207 29.9792 63.2903 30.2226 63.3544L31.5549 63.7131C31.8966 63.8027 32.2766 63.9266 32.6951 64.0846C33.1179 64.2426 33.5214 64.4582 33.9058 64.7315C34.2944 65.0006 34.6146 65.3465 34.8666 65.7692C35.1185 66.192 35.2445 66.7108 35.2445 67.3258C35.2445 68.0346 35.0587 68.6752 34.6872 69.2474C34.32 69.8196 33.7819 70.2744 33.073 70.6118C32.3684 70.9491 31.5122 71.1178 30.5044 71.1178C29.565 71.1178 28.7515 70.9662 28.064 70.663C27.3807 70.3598 26.8426 69.9371 26.4498 69.3947C26.0612 68.8524 25.8413 68.2225 25.79 67.5051H27.4298C27.4725 68.0005 27.6391 68.4104 27.9294 68.735C28.2241 69.0552 28.5956 69.2944 29.044 69.4524C29.4966 69.6061 29.9835 69.683 30.5044 69.683C31.1108 69.683 31.6553 69.5848 32.1378 69.3883C32.6204 69.1876 33.0026 68.91 33.2844 68.5556C33.5663 68.1969 33.7072 67.7784 33.7072 67.3001C33.7072 66.8646 33.5855 66.5101 33.3421 66.2368C33.0987 65.9635 32.7784 65.7415 32.3812 65.5707C31.9841 65.3998 31.5549 65.2504 31.0937 65.1223L29.4796 64.6611C28.4547 64.3664 27.6433 63.9458 27.0455 63.3992C26.4476 62.8526 26.1487 62.1373 26.1487 61.2534C26.1487 60.5189 26.3473 59.8783 26.7444 59.3317C27.1458 58.7809 27.6839 58.3538 28.3586 58.0506C29.0376 57.7432 29.7956 57.5894 30.6326 57.5894C31.4781 57.5894 32.2297 57.741 32.8873 58.0442C33.5449 58.3431 34.0659 58.7531 34.4502 59.2741C34.8388 59.7951 35.0438 60.3865 35.0651 61.0484H33.5278ZM37.8563 70.8872V57.7688H42.2889C43.3138 57.7688 44.1551 57.9439 44.8127 58.294C45.4703 58.6399 45.9571 59.1161 46.2731 59.7225C46.5891 60.3288 46.7471 61.0185 46.7471 61.7914C46.7471 62.5644 46.5891 63.2497 46.2731 63.8476C45.9571 64.4454 45.4724 64.9152 44.8191 65.2568C44.1657 65.5941 43.3309 65.7628 42.3145 65.7628H38.7275V64.328H42.2633C42.9636 64.328 43.5273 64.2255 43.9543 64.0205C44.3856 63.8156 44.6974 63.5252 44.8895 63.1494C45.086 62.7693 45.1842 62.3167 45.1842 61.7914C45.1842 61.2662 45.086 60.8071 44.8895 60.4143C44.6931 60.0214 44.3792 59.7182 43.9479 59.5047C43.5166 59.2869 42.9466 59.178 42.2377 59.178H39.4449V70.8872H37.8563ZM44.0312 64.9942L47.2596 70.8872H45.4148L42.2377 64.9942H44.0312ZM59.9504 61.8683H58.3619C58.2679 61.4114 58.1035 61.01 57.8686 60.6641C57.638 60.3182 57.3562 60.0278 57.0231 59.7929C56.6943 59.5538 56.3292 59.3744 55.9278 59.2549C55.5264 59.1353 55.1079 59.0755 54.6723 59.0755C53.878 59.0755 53.1585 59.2762 52.5137 59.6776C51.8731 60.079 51.3628 60.6705 50.9828 61.4519C50.607 62.2334 50.4191 63.1921 50.4191 64.328C50.4191 65.4639 50.607 66.4226 50.9828 67.2041C51.3628 67.9855 51.8731 68.577 52.5137 68.9784C53.1585 69.3798 53.878 69.5805 54.6723 69.5805C55.1079 69.5805 55.5264 69.5207 55.9278 69.4011C56.3292 69.2816 56.6943 69.1043 57.0231 68.8695C57.3562 68.6303 57.638 68.3378 57.8686 67.9919C58.1035 67.6418 58.2679 67.2404 58.3619 66.7877H59.9504C59.8309 67.4581 59.6131 68.0581 59.2971 68.5876C58.9811 69.1172 58.5882 69.5677 58.1185 69.9392C57.6487 70.3064 57.1213 70.5861 56.5363 70.7783C55.9555 70.9705 55.3342 71.0666 54.6723 71.0666C53.5535 71.0666 52.5585 70.7933 51.6874 70.2467C50.8162 69.7001 50.1308 68.9229 49.6312 67.9151C49.1316 66.9073 48.8818 65.7116 48.8818 64.328C48.8818 62.9444 49.1316 61.7487 49.6312 60.7409C50.1308 59.7331 50.8162 58.9559 51.6874 58.4093C52.5585 57.8627 53.5535 57.5894 54.6723 57.5894C55.3342 57.5894 55.9555 57.6855 56.5363 57.8777C57.1213 58.0698 57.6487 58.3517 58.1185 58.7232C58.5882 59.0905 58.9811 59.5388 59.2971 60.0684C59.6131 60.5936 59.8309 61.1936 59.9504 61.8683Z" fill="white"/>
</svg>
