<svg width="102" height="134" viewBox="0 0 102 134" fill="none" xmlns="http://www.w3.org/2000/svg">
<rect x="4" width="92.4915" height="125.339" fill="white"/>
<path d="M28.1916 106.257C28.0476 107.089 27.6996 107.737 27.1476 108.201C26.6036 108.657 25.9356 108.885 25.1436 108.885C24.2476 108.885 23.5116 108.597 22.9356 108.021C22.5516 107.629 22.3116 107.205 22.2156 106.749C22.1196 106.285 22.0716 105.549 22.0716 104.541C22.0716 103.533 22.1196 102.801 22.2156 102.345C22.3116 101.881 22.5516 101.453 22.9356 101.061C23.5116 100.485 24.2476 100.197 25.1436 100.197C25.9436 100.197 26.6116 100.429 27.1476 100.893C27.6916 101.349 28.0396 101.993 28.1916 102.825H26.8716C26.7756 102.369 26.5796 102.009 26.2836 101.745C25.9876 101.481 25.6076 101.349 25.1436 101.349C24.6316 101.349 24.2116 101.525 23.8836 101.877C23.6676 102.101 23.5276 102.389 23.4636 102.741C23.3996 103.085 23.3676 103.685 23.3676 104.541C23.3676 105.397 23.3996 106.001 23.4636 106.353C23.5276 106.697 23.6676 106.981 23.8836 107.205C24.2116 107.557 24.6316 107.733 25.1436 107.733C25.6076 107.733 25.9876 107.601 26.2836 107.337C26.5876 107.073 26.7916 106.713 26.8956 106.257H28.1916ZM35.3787 108.813H29.9187V100.269H35.3787V101.433H31.2147V103.929H34.7667V105.081H31.2147V107.649H35.3787V108.813ZM43.3772 108.813H41.8652L40.0652 105.213H38.4452V108.813H37.1492V100.269H40.4612C41.2612 100.269 41.9012 100.501 42.3812 100.965C42.8692 101.429 43.1132 102.029 43.1132 102.765C43.1132 103.349 42.9532 103.841 42.6332 104.241C42.3212 104.633 41.9132 104.897 41.4092 105.033L43.3772 108.813ZM41.4212 103.761C41.6852 103.521 41.8172 103.193 41.8172 102.777C41.8172 102.361 41.6852 102.033 41.4212 101.793C41.1572 101.553 40.8052 101.433 40.3652 101.433H38.4452V104.109H40.3652C40.8052 104.109 41.1572 103.993 41.4212 103.761ZM50.0807 101.433H47.7287V108.813H46.4327V101.433H44.0807V100.269H50.0807V101.433ZM52.8475 108.813H51.5515V100.269H52.8475V108.813ZM60.5389 101.433H56.3749V104.037H59.9269V105.201H56.3749V108.813H55.0789V100.269H60.5389V101.433ZM63.3944 108.813H62.0984V100.269H63.3944V108.813ZM71.0858 108.813H65.6258V100.269H71.0858V101.433H66.9218V103.929H70.4738V105.081H66.9218V107.649H71.0858V108.813ZM78.8082 102.585C78.8882 103.057 78.9282 103.709 78.9282 104.541C78.9282 105.373 78.8882 106.029 78.8082 106.509C78.7362 106.981 78.5602 107.389 78.2802 107.733C77.6962 108.453 76.8882 108.813 75.8562 108.813H72.8562V100.269H75.8562C76.8882 100.269 77.6962 100.629 78.2802 101.349C78.5602 101.693 78.7362 102.105 78.8082 102.585ZM77.5482 106.197C77.6042 105.821 77.6322 105.269 77.6322 104.541C77.6322 103.813 77.6042 103.265 77.5482 102.897C77.4922 102.521 77.3682 102.225 77.1762 102.009C76.8402 101.617 76.3522 101.421 75.7122 101.421H74.1522V107.661H75.7122C76.3522 107.661 76.8402 107.465 77.1762 107.073C77.3682 106.857 77.4922 106.565 77.5482 106.197Z" fill="#272C35"/>
<path d="M48.9466 88.5032C49.0426 88.9592 49.0906 89.6952 49.0906 90.7112C49.0906 91.7272 49.0426 92.4632 48.9466 92.9192C48.8586 93.3752 48.6186 93.7992 48.2266 94.1912C47.6506 94.7672 46.9146 95.0552 46.0186 95.0552C45.1226 95.0552 44.3866 94.7672 43.8106 94.1912C43.4186 93.7992 43.1746 93.3752 43.0786 92.9192C42.9906 92.4632 42.9466 91.7272 42.9466 90.7112C42.9466 89.6952 42.9906 88.9592 43.0786 88.5032C43.1746 88.0472 43.4186 87.6232 43.8106 87.2312C44.3866 86.6552 45.1226 86.3672 46.0186 86.3672C46.9146 86.3672 47.6506 86.6552 48.2266 87.2312C48.6186 87.6232 48.8586 88.0472 48.9466 88.5032ZM47.6986 92.5232C47.7626 92.1792 47.7946 91.5752 47.7946 90.7112C47.7946 89.8472 47.7626 89.2432 47.6986 88.8992C47.6346 88.5472 47.4986 88.2632 47.2906 88.0472C46.9546 87.6952 46.5306 87.5192 46.0186 87.5192C45.5066 87.5192 45.0826 87.6952 44.7466 88.0472C44.5386 88.2712 44.4026 88.5592 44.3386 88.9112C44.2746 89.2552 44.2426 89.8552 44.2426 90.7112C44.2426 91.5672 44.2746 92.1672 44.3386 92.5112C44.4026 92.8552 44.5386 93.1392 44.7466 93.3632C45.0906 93.7232 45.5146 93.9032 46.0186 93.9032C46.5226 93.9032 46.9466 93.7232 47.2906 93.3632C47.4986 93.1472 47.6346 92.8672 47.6986 92.5232ZM57.0524 92.5712C57.0524 93.3392 56.8164 93.9352 56.3444 94.3592C55.8724 94.7752 55.2484 94.9832 54.4724 94.9832H51.0164V86.4392H54.3404C55.1324 86.4392 55.7604 86.6512 56.2244 87.0752C56.6884 87.4912 56.9204 88.0592 56.9204 88.7792C56.9204 89.2112 56.8044 89.5912 56.5724 89.9192C56.3484 90.2392 56.0804 90.4632 55.7684 90.5912C56.1364 90.7352 56.4404 90.9752 56.6804 91.3112C56.9284 91.6472 57.0524 92.0672 57.0524 92.5712ZM55.7564 92.5112C55.7564 92.1272 55.6324 91.8152 55.3844 91.5752C55.1364 91.3352 54.7924 91.2152 54.3524 91.2152H52.3124V93.8192H54.3524C54.7924 93.8192 55.1364 93.6992 55.3844 93.4592C55.6324 93.2192 55.7564 92.9032 55.7564 92.5112ZM55.2404 89.7392C55.4964 89.5232 55.6244 89.2192 55.6244 88.8272C55.6244 88.4352 55.4964 88.1352 55.2404 87.9272C54.9924 87.7112 54.6564 87.6032 54.2324 87.6032H52.3124V90.0512H54.2324C54.6564 90.0512 54.9924 89.9472 55.2404 89.7392Z" fill="#272C35"/>
<path d="M27.3366 15.5593H74.9024C78.2604 15.5593 81.0022 18.2857 81.0022 21.6591V69.2249C81.0022 72.5829 78.2758 75.3247 74.9024 75.3247H27.3366C23.9786 75.3247 21.2368 72.5983 21.2368 69.2249V21.6591C21.2368 18.3011 23.9632 15.5593 27.3366 15.5593Z" fill="#FCF29B"/>
<path d="M39.0286 67C32.4544 67 28 58.7158 28 46.5C28 34.2841 32.4544 26 39.0286 26C45.6029 26 50 34.2841 50 46.5C50 58.7158 45.4883 67 39.0286 67ZM39.0286 31.0198C35.9062 31.0198 33.1992 37.2873 33.1992 46.5C33.1992 55.7127 35.9062 61.9077 39.0286 61.9077C42.151 61.9077 44.8151 55.6401 44.8151 46.5C44.8151 37.3598 42.0508 31.0198 39.0286 31.0198Z" fill="#272C35"/>
<path d="M62.5967 66H53V27H61.4694C66.4122 27 71.3696 30.0544 71.3696 36.8419C71.3696 40.3912 69.7942 43.5022 67.6263 44.2375C70.5458 44.9021 74 48.4514 74 54.3198C74 61.7719 68.8259 66 62.6111 66H62.5967ZM60.9635 31.0301H58.8679V42.583H61.0502C63.0736 42.583 65.4728 40.9286 65.4728 36.8419C65.4728 32.7552 63.0736 31.0301 60.978 31.0301H60.9635ZM61.9463 46.6838H58.8679V61.8426H61.9463C64.9381 61.8426 67.7852 59.3397 67.7852 54.3198C67.7852 49.2998 64.9381 46.6838 61.9463 46.6838Z" fill="#272C35"/>
</svg>
