<svg width="102" height="134" viewBox="0 0 102 134" fill="none" xmlns="http://www.w3.org/2000/svg">
<rect x="4" width="92.4915" height="125.339" fill="white"/>
<path d="M28.1916 106.257C28.0476 107.089 27.6996 107.737 27.1476 108.201C26.6036 108.657 25.9356 108.885 25.1436 108.885C24.2476 108.885 23.5116 108.597 22.9356 108.021C22.5516 107.629 22.3116 107.205 22.2156 106.749C22.1196 106.285 22.0716 105.549 22.0716 104.541C22.0716 103.533 22.1196 102.801 22.2156 102.345C22.3116 101.881 22.5516 101.453 22.9356 101.061C23.5116 100.485 24.2476 100.197 25.1436 100.197C25.9436 100.197 26.6116 100.429 27.1476 100.893C27.6916 101.349 28.0396 101.993 28.1916 102.825H26.8716C26.7756 102.369 26.5796 102.009 26.2836 101.745C25.9876 101.481 25.6076 101.349 25.1436 101.349C24.6316 101.349 24.2116 101.525 23.8836 101.877C23.6676 102.101 23.5276 102.389 23.4636 102.741C23.3996 103.085 23.3676 103.685 23.3676 104.541C23.3676 105.397 23.3996 106.001 23.4636 106.353C23.5276 106.697 23.6676 106.981 23.8836 107.205C24.2116 107.557 24.6316 107.733 25.1436 107.733C25.6076 107.733 25.9876 107.601 26.2836 107.337C26.5876 107.073 26.7916 106.713 26.8956 106.257H28.1916ZM35.3787 108.813H29.9187V100.269H35.3787V101.433H31.2147V103.929H34.7667V105.081H31.2147V107.649H35.3787V108.813ZM43.3772 108.813H41.8652L40.0652 105.213H38.4452V108.813H37.1492V100.269H40.4612C41.2612 100.269 41.9012 100.501 42.3812 100.965C42.8692 101.429 43.1132 102.029 43.1132 102.765C43.1132 103.349 42.9532 103.841 42.6332 104.241C42.3212 104.633 41.9132 104.897 41.4092 105.033L43.3772 108.813ZM41.4212 103.761C41.6852 103.521 41.8172 103.193 41.8172 102.777C41.8172 102.361 41.6852 102.033 41.4212 101.793C41.1572 101.553 40.8052 101.433 40.3652 101.433H38.4452V104.109H40.3652C40.8052 104.109 41.1572 103.993 41.4212 103.761ZM50.0807 101.433H47.7287V108.813H46.4327V101.433H44.0807V100.269H50.0807V101.433ZM52.8475 108.813H51.5515V100.269H52.8475V108.813ZM60.5389 101.433H56.3749V104.037H59.9269V105.201H56.3749V108.813H55.0789V100.269H60.5389V101.433ZM63.3944 108.813H62.0984V100.269H63.3944V108.813ZM71.0858 108.813H65.6258V100.269H71.0858V101.433H66.9218V103.929H70.4738V105.081H66.9218V107.649H71.0858V108.813ZM78.8082 102.585C78.8882 103.057 78.9282 103.709 78.9282 104.541C78.9282 105.373 78.8882 106.029 78.8082 106.509C78.7362 106.981 78.5602 107.389 78.2802 107.733C77.6962 108.453 76.8882 108.813 75.8562 108.813H72.8562V100.269H75.8562C76.8882 100.269 77.6962 100.629 78.2802 101.349C78.5602 101.693 78.7362 102.105 78.8082 102.585ZM77.5482 106.197C77.6042 105.821 77.6322 105.269 77.6322 104.541C77.6322 103.813 77.6042 103.265 77.5482 102.897C77.4922 102.521 77.3682 102.225 77.1762 102.009C76.8402 101.617 76.3522 101.421 75.7122 101.421H74.1522V107.661H75.7122C76.3522 107.661 76.8402 107.465 77.1762 107.073C77.3682 106.857 77.4922 106.565 77.5482 106.197Z" fill="#272C35"/>
<path d="M49.7656 92.6072C49.7656 93.3512 49.5296 93.9472 49.0576 94.3952C48.5856 94.8352 47.9976 95.0552 47.2936 95.0552C46.5976 95.0552 46.0136 94.8352 45.5416 94.3952C45.0696 93.9472 44.8336 93.3512 44.8336 92.6072V88.8152C44.8336 88.0712 45.0696 87.4792 45.5416 87.0392C46.0136 86.5912 46.5976 86.3672 47.2936 86.3672C47.9976 86.3672 48.5856 86.5912 49.0576 87.0392C49.5296 87.4792 49.7656 88.0712 49.7656 88.8152V92.6072ZM48.5416 92.5712V88.8512C48.5416 88.4352 48.4296 88.0992 48.2056 87.8432C47.9816 87.5872 47.6776 87.4592 47.2936 87.4592C46.9176 87.4592 46.6176 87.5872 46.3936 87.8432C46.1696 88.0992 46.0576 88.4352 46.0576 88.8512V92.5712C46.0576 92.9872 46.1696 93.3232 46.3936 93.5792C46.6176 93.8352 46.9176 93.9632 47.2936 93.9632C47.6776 93.9632 47.9816 93.8352 48.2056 93.5792C48.4296 93.3232 48.5416 92.9872 48.5416 92.5712ZM56.476 93.6992H55.564V94.9832H54.376V93.6992H50.92V92.5592L53.932 86.4392H55.252L52.252 92.5592H54.376V90.5672H55.564V92.5592H56.476V93.6992Z" fill="#272C35"/>
<path d="M27.3366 15.5593H74.9024C78.2604 15.5593 81.0022 18.2857 81.0022 21.6591V69.2249C81.0022 72.5829 78.2758 75.3247 74.9024 75.3247H27.3366C23.9786 75.3247 21.2368 72.5983 21.2368 69.2249V21.6591C21.2368 18.3011 23.9632 15.5593 27.3366 15.5593Z" fill="#FCF29B"/>
<path d="M39.5295 66C32.6502 66 28 57.5289 28 45C28 32.4711 32.665 24 39.5295 24C46.3941 24 51 32.4711 51 45C51 57.5289 46.276 66 39.5295 66ZM39.5295 28.8131C35.9718 28.8131 32.8864 35.359 32.8864 45C32.8864 54.6411 35.9718 61.1129 39.5295 61.1129C43.0873 61.1129 46.1136 54.567 46.1136 45C46.1136 35.433 42.9692 28.8131 39.5295 28.8131Z" fill="#272C35"/>
<path d="M69.759 53.8236V65H64.3721V53.8236H52.6512L52 49.3915L64.9345 24H69.759V49.5101H73V53.8236H69.759ZM64.4461 33.7683C63.7209 35.6359 62.8626 37.6222 62.1522 39.0452L57.0465 49.525H64.3721V39.0452C64.3721 37.3702 64.5201 35.5766 64.5941 33.8424L64.4461 33.7831V33.7683Z" fill="#272C35"/>
</svg>
