<svg width="102" height="134" viewBox="0 0 102 134" fill="none" xmlns="http://www.w3.org/2000/svg">
<rect x="4" width="92.4915" height="125.339" fill="white"/>
<path d="M28.1916 106.257C28.0476 107.089 27.6996 107.737 27.1476 108.201C26.6036 108.657 25.9356 108.885 25.1436 108.885C24.2476 108.885 23.5116 108.597 22.9356 108.021C22.5516 107.629 22.3116 107.205 22.2156 106.749C22.1196 106.285 22.0716 105.549 22.0716 104.541C22.0716 103.533 22.1196 102.801 22.2156 102.345C22.3116 101.881 22.5516 101.453 22.9356 101.061C23.5116 100.485 24.2476 100.197 25.1436 100.197C25.9436 100.197 26.6116 100.429 27.1476 100.893C27.6916 101.349 28.0396 101.993 28.1916 102.825H26.8716C26.7756 102.369 26.5796 102.009 26.2836 101.745C25.9876 101.481 25.6076 101.349 25.1436 101.349C24.6316 101.349 24.2116 101.525 23.8836 101.877C23.6676 102.101 23.5276 102.389 23.4636 102.741C23.3996 103.085 23.3676 103.685 23.3676 104.541C23.3676 105.397 23.3996 106.001 23.4636 106.353C23.5276 106.697 23.6676 106.981 23.8836 107.205C24.2116 107.557 24.6316 107.733 25.1436 107.733C25.6076 107.733 25.9876 107.601 26.2836 107.337C26.5876 107.073 26.7916 106.713 26.8956 106.257H28.1916ZM35.3787 108.813H29.9187V100.269H35.3787V101.433H31.2147V103.929H34.7667V105.081H31.2147V107.649H35.3787V108.813ZM43.3772 108.813H41.8652L40.0652 105.213H38.4452V108.813H37.1492V100.269H40.4612C41.2612 100.269 41.9012 100.501 42.3812 100.965C42.8692 101.429 43.1132 102.029 43.1132 102.765C43.1132 103.349 42.9532 103.841 42.6332 104.241C42.3212 104.633 41.9132 104.897 41.4092 105.033L43.3772 108.813ZM41.4212 103.761C41.6852 103.521 41.8172 103.193 41.8172 102.777C41.8172 102.361 41.6852 102.033 41.4212 101.793C41.1572 101.553 40.8052 101.433 40.3652 101.433H38.4452V104.109H40.3652C40.8052 104.109 41.1572 103.993 41.4212 103.761ZM50.0807 101.433H47.7287V108.813H46.4327V101.433H44.0807V100.269H50.0807V101.433ZM52.8475 108.813H51.5515V100.269H52.8475V108.813ZM60.5389 101.433H56.3749V104.037H59.9269V105.201H56.3749V108.813H55.0789V100.269H60.5389V101.433ZM63.3944 108.813H62.0984V100.269H63.3944V108.813ZM71.0858 108.813H65.6258V100.269H71.0858V101.433H66.9218V103.929H70.4738V105.081H66.9218V107.649H71.0858V108.813ZM78.8082 102.585C78.8882 103.057 78.9282 103.709 78.9282 104.541C78.9282 105.373 78.8882 106.029 78.8082 106.509C78.7362 106.981 78.5602 107.389 78.2802 107.733C77.6962 108.453 76.8882 108.813 75.8562 108.813H72.8562V100.269H75.8562C76.8882 100.269 77.6962 100.629 78.2802 101.349C78.5602 101.693 78.7362 102.105 78.8082 102.585ZM77.5482 106.197C77.6042 105.821 77.6322 105.269 77.6322 104.541C77.6322 103.813 77.6042 103.265 77.5482 102.897C77.4922 102.521 77.3682 102.225 77.1762 102.009C76.8402 101.617 76.3522 101.421 75.7122 101.421H74.1522V107.661H75.7122C76.3522 107.661 76.8402 107.465 77.1762 107.073C77.3682 106.857 77.4922 106.565 77.5482 106.197Z" fill="#272C35"/>
<path d="M50.0412 92.4272C49.8972 93.2592 49.5492 93.9072 48.9972 94.3712C48.4532 94.8272 47.7852 95.0552 46.9932 95.0552C46.0972 95.0552 45.3612 94.7672 44.7852 94.1912C44.4012 93.7992 44.1612 93.3752 44.0652 92.9192C43.9692 92.4552 43.9212 91.7192 43.9212 90.7112C43.9212 89.7032 43.9692 88.9712 44.0652 88.5152C44.1612 88.0512 44.4012 87.6232 44.7852 87.2312C45.3612 86.6552 46.0972 86.3672 46.9932 86.3672C47.7932 86.3672 48.4612 86.5992 48.9972 87.0632C49.5412 87.5192 49.8892 88.1632 50.0412 88.9952H48.7212C48.6252 88.5392 48.4292 88.1792 48.1332 87.9152C47.8372 87.6512 47.4572 87.5192 46.9932 87.5192C46.4812 87.5192 46.0612 87.6952 45.7332 88.0472C45.5172 88.2712 45.3772 88.5592 45.3132 88.9112C45.2492 89.2552 45.2172 89.8552 45.2172 90.7112C45.2172 91.5672 45.2492 92.1712 45.3132 92.5232C45.3772 92.8672 45.5172 93.1512 45.7332 93.3752C46.0612 93.7272 46.4812 93.9032 46.9932 93.9032C47.4572 93.9032 47.8372 93.7712 48.1332 93.5072C48.4372 93.2432 48.6412 92.8832 48.7452 92.4272H50.0412ZM57.2283 94.9832H51.7683V86.4392H57.2283V87.6032H53.0643V90.0992H56.6163V91.2512H53.0643V93.8192H57.2283V94.9832Z" fill="#272C35"/>
<path d="M27.3366 15.5593H74.9024C78.2604 15.5593 81.0022 18.2857 81.0022 21.6591V69.2249C81.0022 72.5829 78.2758 75.3247 74.9024 75.3247H27.3366C23.9786 75.3247 21.2368 72.5983 21.2368 69.2249V21.6591C21.2368 18.3011 23.9632 15.5593 27.3366 15.5593Z" fill="#FCF29B"/>
<path d="M49.4622 33.9884C48.5275 33.1925 46.5941 32.2401 44.1357 32.2401C39.1421 32.2401 35.5442 37.9023 35.5442 46.5C35.5442 55.0977 39.0781 60.7599 44.1357 60.7599C46.7349 60.7599 48.7964 59.964 49.936 58.8942L49.3342 63.6431C48.0666 64.439 46.1332 65 43.265 65C35.5954 65 30 57.981 30 46.5C30 35.019 35.6594 28 43.265 28C46.5301 28 48.7964 28.9002 50 29.7482L49.4622 33.9884Z" fill="#272C35"/>
<path d="M54 65V28H69.76V32.172H59.6267V44.3003H68.0933V48.4724H59.6267V60.828H71V65H54Z" fill="#272C35"/>
</svg>
