<svg width="102" height="134" viewBox="0 0 102 134" fill="none" xmlns="http://www.w3.org/2000/svg">
<rect x="4" width="92.4915" height="125.339" fill="white"/>
<path d="M28.1916 106.257C28.0476 107.089 27.6996 107.737 27.1476 108.201C26.6036 108.657 25.9356 108.885 25.1436 108.885C24.2476 108.885 23.5116 108.597 22.9356 108.021C22.5516 107.629 22.3116 107.205 22.2156 106.749C22.1196 106.285 22.0716 105.549 22.0716 104.541C22.0716 103.533 22.1196 102.801 22.2156 102.345C22.3116 101.881 22.5516 101.453 22.9356 101.061C23.5116 100.485 24.2476 100.197 25.1436 100.197C25.9436 100.197 26.6116 100.429 27.1476 100.893C27.6916 101.349 28.0396 101.993 28.1916 102.825H26.8716C26.7756 102.369 26.5796 102.009 26.2836 101.745C25.9876 101.481 25.6076 101.349 25.1436 101.349C24.6316 101.349 24.2116 101.525 23.8836 101.877C23.6676 102.101 23.5276 102.389 23.4636 102.741C23.3996 103.085 23.3676 103.685 23.3676 104.541C23.3676 105.397 23.3996 106.001 23.4636 106.353C23.5276 106.697 23.6676 106.981 23.8836 107.205C24.2116 107.557 24.6316 107.733 25.1436 107.733C25.6076 107.733 25.9876 107.601 26.2836 107.337C26.5876 107.073 26.7916 106.713 26.8956 106.257H28.1916ZM35.3787 108.813H29.9187V100.269H35.3787V101.433H31.2147V103.929H34.7667V105.081H31.2147V107.649H35.3787V108.813ZM43.3772 108.813H41.8652L40.0652 105.213H38.4452V108.813H37.1492V100.269H40.4612C41.2612 100.269 41.9012 100.501 42.3812 100.965C42.8692 101.429 43.1132 102.029 43.1132 102.765C43.1132 103.349 42.9532 103.841 42.6332 104.241C42.3212 104.633 41.9132 104.897 41.4092 105.033L43.3772 108.813ZM41.4212 103.761C41.6852 103.521 41.8172 103.193 41.8172 102.777C41.8172 102.361 41.6852 102.033 41.4212 101.793C41.1572 101.553 40.8052 101.433 40.3652 101.433H38.4452V104.109H40.3652C40.8052 104.109 41.1572 103.993 41.4212 103.761ZM50.0807 101.433H47.7287V108.813H46.4327V101.433H44.0807V100.269H50.0807V101.433ZM52.8475 108.813H51.5515V100.269H52.8475V108.813ZM60.5389 101.433H56.3749V104.037H59.9269V105.201H56.3749V108.813H55.0789V100.269H60.5389V101.433ZM63.3944 108.813H62.0984V100.269H63.3944V108.813ZM71.0858 108.813H65.6258V100.269H71.0858V101.433H66.9218V103.929H70.4738V105.081H66.9218V107.649H71.0858V108.813ZM78.8082 102.585C78.8882 103.057 78.9282 103.709 78.9282 104.541C78.9282 105.373 78.8882 106.029 78.8082 106.509C78.7362 106.981 78.5602 107.389 78.2802 107.733C77.6962 108.453 76.8882 108.813 75.8562 108.813H72.8562V100.269H75.8562C76.8882 100.269 77.6962 100.629 78.2802 101.349C78.5602 101.693 78.7362 102.105 78.8082 102.585ZM77.5482 106.197C77.6042 105.821 77.6322 105.269 77.6322 104.541C77.6322 103.813 77.6042 103.265 77.5482 102.897C77.4922 102.521 77.3682 102.225 77.1762 102.009C76.8402 101.617 76.3522 101.421 75.7122 101.421H74.1522V107.661H75.7122C76.3522 107.661 76.8402 107.465 77.1762 107.073C77.3682 106.857 77.4922 106.565 77.5482 106.197Z" fill="#272C35"/>
<path d="M47.663 92.5472C47.663 93.3232 47.379 93.9352 46.811 94.3832C46.243 94.8312 45.503 95.0552 44.591 95.0552C43.935 95.0552 43.367 94.9712 42.887 94.8032C42.415 94.6272 41.975 94.3352 41.567 93.9272L42.419 93.0752C42.971 93.6272 43.703 93.9032 44.615 93.9032C45.175 93.9032 45.607 93.7912 45.911 93.5672C46.223 93.3352 46.379 93.0072 46.379 92.5832C46.379 92.1832 46.267 91.8872 46.043 91.6952C45.835 91.5112 45.523 91.3912 45.107 91.3352L44.099 91.1912C43.387 91.0792 42.851 90.8512 42.491 90.5072C42.067 90.1232 41.855 89.5752 41.855 88.8632C41.855 88.1112 42.111 87.5072 42.623 87.0512C43.135 86.5952 43.831 86.3672 44.711 86.3672C45.279 86.3672 45.771 86.4432 46.187 86.5952C46.603 86.7472 46.995 86.9952 47.363 87.3392L46.547 88.1552C46.083 87.7152 45.455 87.4952 44.663 87.4952C44.167 87.4952 43.783 87.6192 43.511 87.8672C43.247 88.1072 43.115 88.4272 43.115 88.8272C43.115 89.1792 43.219 89.4432 43.427 89.6192C43.643 89.8112 43.955 89.9392 44.363 90.0032L45.383 90.1592C46.087 90.2712 46.615 90.4832 46.967 90.7952C47.431 91.2192 47.663 91.8032 47.663 92.5472ZM52.5932 92.2232H49.0892V91.0832H52.5932V92.2232ZM59.3705 93.6992H58.4585V94.9832H57.2705V93.6992H53.8145V92.5592L56.8265 86.4392H58.1465L55.1465 92.5592H57.2705V90.5672H58.4585V92.5592H59.3705V93.6992Z" fill="#272C35"/>
<path d="M27.3366 15.5593H74.9024C78.2604 15.5593 81.0022 18.2857 81.0022 21.6591V69.2249C81.0022 72.5829 78.2758 75.3247 74.9024 75.3247H27.3366C23.9786 75.3247 21.2368 72.5983 21.2368 69.2249V21.6591C21.2368 18.3011 23.9632 15.5593 27.3366 15.5593Z" fill="#FCF29B"/>
<path d="M36.4793 68C32.9616 68 30.1659 66.8178 28.7988 65.6962L28 59.6486C29.9969 61.5584 32.7158 62.9983 35.8341 62.9983C39.1982 62.9983 41.3487 61.1643 41.3487 57.6782C41.3487 54.1921 39.275 50.9789 36.0799 47.6141C31.8402 43.1428 28.7988 39.1414 28.7988 34.6701C28.7988 29.0772 32.639 25 39.3518 25C42.47 25 44.8664 25.9852 45.8341 26.7734L45.1121 31.6994C44.2366 30.8506 42.2396 29.8653 39.9969 29.8653C37.1244 29.8653 35.2043 31.5781 35.2043 34.3366C35.2043 36.8981 36.9554 39.7325 39.8433 42.8093C44.8049 48.0687 48 52.0702 48 57.269C48 64.1047 43.7604 67.9849 36.4946 67.9849" fill="#272C35"/>
<path d="M69.4441 55.8236V67H63.5428V55.8236H50.7112L50 51.3915L64.1783 26H69.4592V51.5101H73V55.8236H69.4592H69.4441ZM63.6184 35.7683C62.8316 37.6359 61.8934 39.6222 61.0914 41.0452L55.5079 51.525H63.5428V41.0452C63.5428 39.3702 63.6941 37.5766 63.7697 35.8424L63.6184 35.7831V35.7683Z" fill="#272C35"/>
</svg>
