<svg width="102" height="134" viewBox="0 0 102 134" fill="none" xmlns="http://www.w3.org/2000/svg">
<rect x="4" width="92.4915" height="125.339" fill="white"/>
<path d="M28.1916 106.257C28.0476 107.089 27.6996 107.737 27.1476 108.201C26.6036 108.657 25.9356 108.885 25.1436 108.885C24.2476 108.885 23.5116 108.597 22.9356 108.021C22.5516 107.629 22.3116 107.205 22.2156 106.749C22.1196 106.285 22.0716 105.549 22.0716 104.541C22.0716 103.533 22.1196 102.801 22.2156 102.345C22.3116 101.881 22.5516 101.453 22.9356 101.061C23.5116 100.485 24.2476 100.197 25.1436 100.197C25.9436 100.197 26.6116 100.429 27.1476 100.893C27.6916 101.349 28.0396 101.993 28.1916 102.825H26.8716C26.7756 102.369 26.5796 102.009 26.2836 101.745C25.9876 101.481 25.6076 101.349 25.1436 101.349C24.6316 101.349 24.2116 101.525 23.8836 101.877C23.6676 102.101 23.5276 102.389 23.4636 102.741C23.3996 103.085 23.3676 103.685 23.3676 104.541C23.3676 105.397 23.3996 106.001 23.4636 106.353C23.5276 106.697 23.6676 106.981 23.8836 107.205C24.2116 107.557 24.6316 107.733 25.1436 107.733C25.6076 107.733 25.9876 107.601 26.2836 107.337C26.5876 107.073 26.7916 106.713 26.8956 106.257H28.1916ZM35.3787 108.813H29.9187V100.269H35.3787V101.433H31.2147V103.929H34.7667V105.081H31.2147V107.649H35.3787V108.813ZM43.3772 108.813H41.8652L40.0652 105.213H38.4452V108.813H37.1492V100.269H40.4612C41.2612 100.269 41.9012 100.501 42.3812 100.965C42.8692 101.429 43.1132 102.029 43.1132 102.765C43.1132 103.349 42.9532 103.841 42.6332 104.241C42.3212 104.633 41.9132 104.897 41.4092 105.033L43.3772 108.813ZM41.4212 103.761C41.6852 103.521 41.8172 103.193 41.8172 102.777C41.8172 102.361 41.6852 102.033 41.4212 101.793C41.1572 101.553 40.8052 101.433 40.3652 101.433H38.4452V104.109H40.3652C40.8052 104.109 41.1572 103.993 41.4212 103.761ZM50.0807 101.433H47.7287V108.813H46.4327V101.433H44.0807V100.269H50.0807V101.433ZM52.8475 108.813H51.5515V100.269H52.8475V108.813ZM60.5389 101.433H56.3749V104.037H59.9269V105.201H56.3749V108.813H55.0789V100.269H60.5389V101.433ZM63.3944 108.813H62.0984V100.269H63.3944V108.813ZM71.0858 108.813H65.6258V100.269H71.0858V101.433H66.9218V103.929H70.4738V105.081H66.9218V107.649H71.0858V108.813ZM78.8082 102.585C78.8882 103.057 78.9282 103.709 78.9282 104.541C78.9282 105.373 78.8882 106.029 78.8082 106.509C78.7362 106.981 78.5602 107.389 78.2802 107.733C77.6962 108.453 76.8882 108.813 75.8562 108.813H72.8562V100.269H75.8562C76.8882 100.269 77.6962 100.629 78.2802 101.349C78.5602 101.693 78.7362 102.105 78.8082 102.585ZM77.5482 106.197C77.6042 105.821 77.6322 105.269 77.6322 104.541C77.6322 103.813 77.6042 103.265 77.5482 102.897C77.4922 102.521 77.3682 102.225 77.1762 102.009C76.8402 101.617 76.3522 101.421 75.7122 101.421H74.1522V107.661H75.7122C76.3522 107.661 76.8402 107.465 77.1762 107.073C77.3682 106.857 77.4922 106.565 77.5482 106.197Z" fill="#272C35"/>
<path d="M46.8837 92.5472C46.8837 93.3232 46.5997 93.9352 46.0317 94.3832C45.4637 94.8312 44.7237 95.0552 43.8117 95.0552C43.1557 95.0552 42.5877 94.9712 42.1077 94.8032C41.6357 94.6272 41.1957 94.3352 40.7877 93.9272L41.6397 93.0752C42.1917 93.6272 42.9237 93.9032 43.8357 93.9032C44.3957 93.9032 44.8277 93.7912 45.1317 93.5672C45.4437 93.3352 45.5997 93.0072 45.5997 92.5832C45.5997 92.1832 45.4877 91.8872 45.2637 91.6952C45.0557 91.5112 44.7437 91.3912 44.3277 91.3352L43.3197 91.1912C42.6077 91.0792 42.0717 90.8512 41.7117 90.5072C41.2877 90.1232 41.0757 89.5752 41.0757 88.8632C41.0757 88.1112 41.3317 87.5072 41.8437 87.0512C42.3557 86.5952 43.0517 86.3672 43.9317 86.3672C44.4997 86.3672 44.9917 86.4432 45.4077 86.5952C45.8237 86.7472 46.2157 86.9952 46.5837 87.3392L45.7677 88.1552C45.3037 87.7152 44.6757 87.4952 43.8837 87.4952C43.3877 87.4952 43.0037 87.6192 42.7317 87.8672C42.4677 88.1072 42.3357 88.4272 42.3357 88.8272C42.3357 89.1792 42.4397 89.4432 42.6477 89.6192C42.8637 89.8112 43.1757 89.9392 43.5837 90.0032L44.6037 90.1592C45.3077 90.2712 45.8357 90.4832 46.1877 90.7952C46.6517 91.2192 46.8837 91.8032 46.8837 92.5472ZM51.8139 92.2232H48.3099V91.0832H51.8139V92.2232ZM59.7672 92.5712C59.7672 93.3392 59.5312 93.9352 59.0592 94.3592C58.5872 94.7752 57.9632 94.9832 57.1872 94.9832H53.7312V86.4392H57.0552C57.8472 86.4392 58.4752 86.6512 58.9392 87.0752C59.4032 87.4912 59.6352 88.0592 59.6352 88.7792C59.6352 89.2112 59.5192 89.5912 59.2872 89.9192C59.0632 90.2392 58.7952 90.4632 58.4832 90.5912C58.8512 90.7352 59.1552 90.9752 59.3952 91.3112C59.6432 91.6472 59.7672 92.0672 59.7672 92.5712ZM58.4712 92.5112C58.4712 92.1272 58.3472 91.8152 58.0992 91.5752C57.8512 91.3352 57.5072 91.2152 57.0672 91.2152H55.0272V93.8192H57.0672C57.5072 93.8192 57.8512 93.6992 58.0992 93.4592C58.3472 93.2192 58.4712 92.9032 58.4712 92.5112ZM57.9552 89.7392C58.2112 89.5232 58.3392 89.2192 58.3392 88.8272C58.3392 88.4352 58.2112 88.1352 57.9552 87.9272C57.7072 87.7112 57.3712 87.6032 56.9472 87.6032H55.0272V90.0512H56.9472C57.3712 90.0512 57.7072 89.9472 57.9552 89.7392Z" fill="#272C35"/>
<path d="M27.3366 15.5593H74.9024C78.2604 15.5593 81.0022 18.2857 81.0022 21.6591V69.2249C81.0022 72.5829 78.2758 75.3247 74.9024 75.3247H27.3366C23.9786 75.3247 21.2368 72.5983 21.2368 69.2249V21.6591C21.2368 18.3011 23.9632 15.5593 27.3366 15.5593Z" fill="#FCF29B"/>
<path d="M35.4858 68C31.9654 68 29.1676 66.8178 27.7994 65.6962L27 59.6486C28.9985 61.5584 31.7195 62.9983 34.8401 62.9983C38.1914 62.9983 40.3589 61.1643 40.3589 57.6782C40.3589 54.1921 38.2836 50.9789 35.0861 47.6141C30.8432 43.1428 27.7994 39.1414 27.7994 34.6701C27.7994 29.0772 31.6426 25 38.3605 25C41.4812 25 43.8793 25.9852 44.8324 26.7734L44.1099 31.6994C43.2337 30.8506 41.2352 29.8653 38.9908 29.8653C36.1161 29.8653 34.1945 31.5781 34.1945 34.3366C34.1945 36.8981 35.947 39.7325 38.8371 42.8093C43.8025 48.0687 47 52.0702 47 57.269C47 64.1047 42.7571 67.9849 35.4858 67.9849" fill="#272C35"/>
<path d="M62.0563 67H52V25H60.8785C66.0577 25 71.2519 28.2938 71.2519 35.5948C71.2519 39.4047 69.606 42.7745 67.326 43.5638C70.3912 44.2924 74 48.1023 74 54.4167C74 62.4463 68.5793 66.9848 62.0563 66.9848V67ZM60.3349 29.3411H58.1304V41.7879H60.4104C62.5244 41.7879 65.046 40.0119 65.046 35.5948C65.046 31.1778 62.5244 29.3411 60.3349 29.3411ZM61.3617 46.1897H58.1455V62.5071H61.3617C64.5024 62.5071 67.4921 59.8052 67.4921 54.4167C67.4921 49.0282 64.5024 46.1897 61.3617 46.1897Z" fill="#272C35"/>
</svg>
