<svg width="102" height="134" viewBox="0 0 102 134" fill="none" xmlns="http://www.w3.org/2000/svg">
<rect x="4" width="92.4915" height="125.339" fill="white"/>
<path d="M31.0403 102.333C31.1363 102.789 31.1843 103.525 31.1843 104.541C31.1843 105.557 31.1363 106.293 31.0403 106.749C30.9523 107.205 30.7123 107.629 30.3203 108.021C29.7443 108.597 29.0083 108.885 28.1123 108.885C27.2163 108.885 26.4803 108.597 25.9043 108.021C25.5123 107.629 25.2683 107.205 25.1723 106.749C25.0843 106.293 25.0403 105.557 25.0403 104.541C25.0403 103.525 25.0843 102.789 25.1723 102.333C25.2683 101.877 25.5123 101.453 25.9043 101.061C26.4803 100.485 27.2163 100.197 28.1123 100.197C29.0083 100.197 29.7443 100.485 30.3203 101.061C30.7123 101.453 30.9523 101.877 31.0403 102.333ZM29.7923 106.353C29.8563 106.009 29.8883 105.405 29.8883 104.541C29.8883 103.677 29.8563 103.073 29.7923 102.729C29.7283 102.377 29.5923 102.093 29.3843 101.877C29.0483 101.525 28.6243 101.349 28.1123 101.349C27.6003 101.349 27.1763 101.525 26.8403 101.877C26.6323 102.101 26.4963 102.389 26.4323 102.741C26.3683 103.085 26.3363 103.685 26.3363 104.541C26.3363 105.397 26.3683 105.997 26.4323 106.341C26.4963 106.685 26.6323 106.969 26.8403 107.193C27.1843 107.553 27.6083 107.733 28.1123 107.733C28.6163 107.733 29.0403 107.553 29.3843 107.193C29.5923 106.977 29.7283 106.697 29.7923 106.353ZM39.1101 105.933C39.1101 106.805 38.8181 107.517 38.2341 108.069C37.6501 108.613 36.9181 108.885 36.0381 108.885C35.1581 108.885 34.4261 108.613 33.8421 108.069C33.2661 107.517 32.9781 106.805 32.9781 105.933V100.269H34.2741V105.873C34.2741 106.441 34.4341 106.893 34.7541 107.229C35.0741 107.557 35.5021 107.721 36.0381 107.721C36.5741 107.721 37.0021 107.557 37.3221 107.229C37.6501 106.893 37.8141 106.441 37.8141 105.873V100.269H39.1101V105.933ZM46.4518 101.433H44.0998V108.813H42.8038V101.433H40.4518V100.269H46.4518V101.433ZM53.2626 106.377C53.2626 107.153 52.9786 107.765 52.4106 108.213C51.8426 108.661 51.1026 108.885 50.1906 108.885C49.5346 108.885 48.9666 108.801 48.4866 108.633C48.0146 108.457 47.5746 108.165 47.1666 107.757L48.0186 106.905C48.5706 107.457 49.3026 107.733 50.2146 107.733C50.7746 107.733 51.2066 107.621 51.5106 107.397C51.8226 107.165 51.9786 106.837 51.9786 106.413C51.9786 106.013 51.8666 105.717 51.6426 105.525C51.4346 105.341 51.1226 105.221 50.7066 105.165L49.6986 105.021C48.9866 104.909 48.4506 104.681 48.0906 104.337C47.6666 103.953 47.4546 103.405 47.4546 102.693C47.4546 101.941 47.7106 101.337 48.2226 100.881C48.7346 100.425 49.4306 100.197 50.3106 100.197C50.8786 100.197 51.3706 100.273 51.7866 100.425C52.2026 100.577 52.5946 100.825 52.9626 101.169L52.1466 101.985C51.6826 101.545 51.0546 101.325 50.2626 101.325C49.7666 101.325 49.3826 101.449 49.1106 101.697C48.8466 101.937 48.7146 102.257 48.7146 102.657C48.7146 103.009 48.8186 103.273 49.0266 103.449C49.2426 103.641 49.5546 103.769 49.9626 103.833L50.9826 103.989C51.6866 104.101 52.2146 104.313 52.5666 104.625C53.0306 105.049 53.2626 105.633 53.2626 106.377ZM60.6888 102.333C60.7848 102.789 60.8328 103.525 60.8328 104.541C60.8328 105.557 60.7848 106.293 60.6888 106.749C60.6008 107.205 60.3608 107.629 59.9688 108.021C59.3928 108.597 58.6568 108.885 57.7608 108.885C56.8648 108.885 56.1288 108.597 55.5528 108.021C55.1608 107.629 54.9168 107.205 54.8208 106.749C54.7328 106.293 54.6888 105.557 54.6888 104.541C54.6888 103.525 54.7328 102.789 54.8208 102.333C54.9168 101.877 55.1608 101.453 55.5528 101.061C56.1288 100.485 56.8648 100.197 57.7608 100.197C58.6568 100.197 59.3928 100.485 59.9688 101.061C60.3608 101.453 60.6008 101.877 60.6888 102.333ZM59.4408 106.353C59.5048 106.009 59.5368 105.405 59.5368 104.541C59.5368 103.677 59.5048 103.073 59.4408 102.729C59.3768 102.377 59.2408 102.093 59.0328 101.877C58.6968 101.525 58.2728 101.349 57.7608 101.349C57.2488 101.349 56.8248 101.525 56.4888 101.877C56.2808 102.101 56.1448 102.389 56.0808 102.741C56.0168 103.085 55.9848 103.685 55.9848 104.541C55.9848 105.397 56.0168 105.997 56.0808 106.341C56.1448 106.685 56.2808 106.969 56.4888 107.193C56.8328 107.553 57.2568 107.733 57.7608 107.733C58.2648 107.733 58.6888 107.553 59.0328 107.193C59.2408 106.977 59.3768 106.697 59.4408 106.353ZM68.1706 108.813H62.7586V100.269H64.0546V107.649H68.1706V108.813ZM75.1092 108.813H69.6492V100.269H75.1092V101.433H70.9452V103.929H74.4972V105.081H70.9452V107.649H75.1092V108.813Z" fill="#272C35"/>
<path d="M11.6669 92.5472C11.6669 93.3232 11.3829 93.9352 10.8149 94.3832C10.2469 94.8312 9.50694 95.0552 8.59494 95.0552C7.93894 95.0552 7.37094 94.9712 6.89094 94.8032C6.41894 94.6272 5.97894 94.3352 5.57094 93.9272L6.42294 93.0752C6.97494 93.6272 7.70694 93.9032 8.61894 93.9032C9.17894 93.9032 9.61094 93.7912 9.91494 93.5672C10.2269 93.3352 10.3829 93.0072 10.3829 92.5832C10.3829 92.1832 10.2709 91.8872 10.0469 91.6952C9.83894 91.5112 9.52694 91.3912 9.11094 91.3352L8.10294 91.1912C7.39094 91.0792 6.85494 90.8512 6.49494 90.5072C6.07094 90.1232 5.85894 89.5752 5.85894 88.8632C5.85894 88.1112 6.11494 87.5072 6.62694 87.0512C7.13894 86.5952 7.83494 86.3672 8.71494 86.3672C9.28294 86.3672 9.77494 86.4432 10.1909 86.5952C10.6069 86.7472 10.9989 86.9952 11.3669 87.3392L10.5509 88.1552C10.0869 87.7152 9.45894 87.4952 8.66694 87.4952C8.17094 87.4952 7.78694 87.6192 7.51494 87.8672C7.25094 88.1072 7.11894 88.4272 7.11894 88.8272C7.11894 89.1792 7.22294 89.4432 7.43094 89.6192C7.64694 89.8112 7.95894 89.9392 8.36694 90.0032L9.38694 90.1592C10.0909 90.2712 10.6189 90.4832 10.9709 90.7952C11.4349 91.2192 11.6669 91.8032 11.6669 92.5472ZM18.8171 94.9832H13.4051V86.4392H14.7011V93.8192H18.8171V94.9832ZM21.5917 94.9832H20.2957V86.4392H21.5917V94.9832ZM29.043 87.1712C29.547 87.6592 29.799 88.2792 29.799 89.0312C29.799 89.7832 29.547 90.4032 29.043 90.8912C28.547 91.3712 27.887 91.6112 27.063 91.6112H25.119V94.9832H23.823V86.4392H27.063C27.887 86.4392 28.547 86.6832 29.043 87.1712ZM28.095 90.0872C28.367 89.8312 28.503 89.4792 28.503 89.0312C28.503 88.5832 28.367 88.2352 28.095 87.9872C27.823 87.7312 27.455 87.6032 26.991 87.6032H25.119V90.4592H26.991C27.455 90.4592 27.823 90.3352 28.095 90.0872ZM40.4807 94.9832H38.9687L37.1687 91.3832H35.5487V94.9832H34.2527V86.4392H37.5647C38.3647 86.4392 39.0047 86.6712 39.4847 87.1352C39.9727 87.5992 40.2167 88.1992 40.2167 88.9352C40.2167 89.5192 40.0567 90.0112 39.7367 90.4112C39.4247 90.8032 39.0167 91.0672 38.5127 91.2032L40.4807 94.9832ZM38.5247 89.9312C38.7887 89.6912 38.9207 89.3632 38.9207 88.9472C38.9207 88.5312 38.7887 88.2032 38.5247 87.9632C38.2607 87.7232 37.9087 87.6032 37.4687 87.6032H35.5487V90.2792H37.4687C37.9087 90.2792 38.2607 90.1632 38.5247 89.9312ZM47.576 94.9832H42.116V86.4392H47.576V87.6032H43.412V90.0992H46.964V91.2512H43.412V93.8192H47.576V94.9832ZM54.6865 92.5472C54.6865 93.3232 54.4025 93.9352 53.8345 94.3832C53.2665 94.8312 52.5265 95.0552 51.6145 95.0552C50.9585 95.0552 50.3905 94.9712 49.9105 94.8032C49.4385 94.6272 48.9985 94.3352 48.5905 93.9272L49.4425 93.0752C49.9945 93.6272 50.7265 93.9032 51.6385 93.9032C52.1985 93.9032 52.6305 93.7912 52.9345 93.5672C53.2465 93.3352 53.4025 93.0072 53.4025 92.5832C53.4025 92.1832 53.2905 91.8872 53.0665 91.6952C52.8585 91.5112 52.5465 91.3912 52.1305 91.3352L51.1225 91.1912C50.4105 91.0792 49.8745 90.8512 49.5145 90.5072C49.0905 90.1232 48.8785 89.5752 48.8785 88.8632C48.8785 88.1112 49.1345 87.5072 49.6465 87.0512C50.1585 86.5952 50.8545 86.3672 51.7345 86.3672C52.3025 86.3672 52.7945 86.4432 53.2105 86.5952C53.6265 86.7472 54.0185 86.9952 54.3865 87.3392L53.5705 88.1552C53.1065 87.7152 52.4785 87.4952 51.6865 87.4952C51.1905 87.4952 50.8065 87.6192 50.5345 87.8672C50.2705 88.1072 50.1385 88.4272 50.1385 88.8272C50.1385 89.1792 50.2425 89.4432 50.4505 89.6192C50.6665 89.8112 50.9785 89.9392 51.3865 90.0032L52.4065 90.1592C53.1105 90.2712 53.6385 90.4832 53.9905 90.7952C54.4545 91.2192 54.6865 91.8032 54.6865 92.5472ZM57.7206 94.9832H56.4246V86.4392H57.7206V94.9832ZM65.2919 92.5472C65.2919 93.3232 65.0079 93.9352 64.4399 94.3832C63.8719 94.8312 63.1319 95.0552 62.2199 95.0552C61.5639 95.0552 60.9959 94.9712 60.5159 94.8032C60.0439 94.6272 59.6039 94.3352 59.1959 93.9272L60.0479 93.0752C60.5999 93.6272 61.3319 93.9032 62.2439 93.9032C62.8039 93.9032 63.2359 93.7912 63.5399 93.5672C63.8519 93.3352 64.0079 93.0072 64.0079 92.5832C64.0079 92.1832 63.8959 91.8872 63.6719 91.6952C63.4639 91.5112 63.1519 91.3912 62.7359 91.3352L61.7279 91.1912C61.0159 91.0792 60.4799 90.8512 60.1199 90.5072C59.6959 90.1232 59.4839 89.5752 59.4839 88.8632C59.4839 88.1112 59.7399 87.5072 60.2519 87.0512C60.7639 86.5952 61.4599 86.3672 62.3399 86.3672C62.9079 86.3672 63.3999 86.4432 63.8159 86.5952C64.2319 86.7472 64.6239 86.9952 64.9919 87.3392L64.1759 88.1552C63.7119 87.7152 63.0839 87.4952 62.2919 87.4952C61.7959 87.4952 61.4119 87.6192 61.1399 87.8672C60.8759 88.1072 60.7439 88.4272 60.7439 88.8272C60.7439 89.1792 60.8479 89.4432 61.0559 89.6192C61.2719 89.8112 61.5839 89.9392 61.9919 90.0032L63.0119 90.1592C63.7159 90.2712 64.2439 90.4832 64.5959 90.7952C65.0599 91.2192 65.2919 91.8032 65.2919 92.5472ZM72.2741 87.6032H69.9221V94.9832H68.6261V87.6032H66.2741V86.4392H72.2741V87.6032ZM79.3181 94.9832H77.9381L77.3501 93.2672H73.9781L73.3901 94.9832H72.0101L75.1421 86.4392H76.1861L79.3181 94.9832ZM76.9901 92.1632L75.6941 88.3712L74.3621 92.1632H76.9901ZM86.9621 94.9832H85.7741L81.8261 88.9712V94.9832H80.5301V86.4392H81.7181L85.6661 92.4392V86.4392H86.9621V94.9832ZM94.4342 87.6032H92.0822V94.9832H90.7862V87.6032H88.4342V86.4392H94.4342V87.6032Z" fill="#272C35"/>
<path d="M21.5657 27.1697L21.1592 67.7811L23.2372 71.0036L27.2727 72.675H74.5398L77.9429 71.0036L21.5657 27.1697Z" fill="#DCDDDE"/>
<path d="M73.7119 74H27.273C23.2676 74 20 70.7324 20 66.727V20.273C20 16.2676 23.2676 13 27.273 13H73.7119C77.7173 13 80.9849 16.2676 80.9849 20.273V66.727C80.9849 70.7324 77.7173 74 73.7119 74ZM27.273 15.6502C24.7131 15.6502 22.6352 17.7282 22.6352 20.2881V66.742C22.6352 69.3019 24.7131 71.3648 27.273 71.3648H73.7119C76.2717 71.3648 78.3498 69.2868 78.3498 66.742V20.2881C78.3498 17.7282 76.2717 15.6502 73.7119 15.6502H27.273Z" fill="#272C35"/>
<path d="M45.9751 73.2171H47.6314V47.8895L45.9751 46.6096V73.2171ZM41.0661 73.2171H42.7225V44.0647L41.0661 42.7848V73.2171ZM36.1572 73.2171H37.8136V40.24L36.1572 38.9601V73.2171ZM26.3243 73.2171H27.9657V32.6056L26.3243 31.3257V73.2171ZM31.2333 73.2171H32.8746V36.4153L31.2333 35.1354V73.2171ZM65.6408 73.2171H67.2972V63.1734L65.6408 61.8934V73.2321V73.2171ZM70.5497 65.7031V73.2171H72.2061V66.983L70.5497 65.7031ZM55.8079 73.2171H57.4643V55.5239L55.8079 54.244V73.2171ZM60.7168 73.2171H62.3732V59.3486L60.7168 58.0687V73.2171ZM50.8839 73.2171H52.5253V51.6992L50.8839 50.4192V73.2171Z" fill="#272C35"/>
<path d="M22.377 26.41L21.3508 27.7102L76.765 71.4422L77.7911 70.142L22.377 26.41Z" fill="#272C35"/>
<path d="M68.7879 63.7604C68.5018 63.7604 68.2157 63.67 67.9747 63.4893L58.5032 56.141C58.2021 55.9151 58.0214 55.5688 57.9913 55.1924L57.7955 52.4669L55.4766 53.1294C55.07 53.2499 54.6334 53.1595 54.3021 52.9035L25.2702 30.3918C24.698 29.9401 24.5926 29.1119 25.0443 28.5397C32.9648 18.3304 41.7437 22.7424 48.1584 25.9497C49.1221 26.4316 50.0256 26.8833 50.8689 27.2598C57.3589 30.1509 61.7558 27.4706 63.1712 25.6636L72.6126 13.4817L74.7057 15.0929L65.2643 27.2748C64.0446 28.8559 61.9666 30.1509 59.7079 30.7532C56.6662 31.5664 53.2329 31.1899 49.8148 29.669C48.9113 29.2625 47.9777 28.7957 46.9839 28.2988C41.0359 25.3173 34.3351 21.9443 27.9807 29.127L55.4013 50.3889L58.6387 49.4703C59.0152 49.3649 59.4369 49.4251 59.7531 49.6661C60.0843 49.8919 60.2801 50.2533 60.3102 50.6448L60.5812 54.4093L68.7427 60.7337C70.0226 59.6044 72.5975 57.2252 74.3744 54.7406C75.6242 53.0089 76.618 50.1329 77.5065 47.6182C77.8227 46.6997 78.1389 45.8112 78.4401 45.0132L80.9095 45.9618C80.6084 46.7298 80.3072 47.5881 79.991 48.4765C79.0424 51.1719 77.9733 54.2287 76.5126 56.2766C73.8474 59.9959 69.7667 63.3237 69.601 63.4592C69.3601 63.655 69.0589 63.7604 68.7728 63.7604" fill="#272C35"/>
<path d="M30.0893 25.3339L29.2773 26.3811L72.1046 59.5894L72.9166 58.5422L30.0893 25.3339Z" fill="#272C35"/>
<path d="M63.2854 51.8711H20.1893V73.8417H63.2257L63.2854 51.8711Z" fill="#AB4794"/>
<path d="M33.5363 60.0992C33.4593 59.4489 33.147 58.9442 32.5995 58.5848C32.0519 58.2255 31.3803 58.0458 30.5846 58.0458C30.0028 58.0458 29.4938 58.1399 29.0574 58.3281C28.6253 58.5164 28.2874 58.7752 28.0436 59.1046C27.804 59.434 27.6842 59.8083 27.6842 60.2275C27.6842 60.5783 27.7676 60.8799 27.9345 61.1323C28.1056 61.3804 28.3238 61.5879 28.589 61.7547C28.8542 61.9173 29.1323 62.052 29.4232 62.159C29.7141 62.2616 29.9814 62.345 30.2253 62.4092L31.5599 62.7685C31.9022 62.8584 32.2829 62.9824 32.7021 63.1407C33.1256 63.299 33.5299 63.515 33.9149 63.7888C34.3042 64.0583 34.625 64.4048 34.8774 64.8283C35.1298 65.2518 35.256 65.7716 35.256 66.3876C35.256 67.0977 35.0699 67.7394 34.6977 68.3126C34.3299 68.8859 33.7908 69.3415 33.0807 69.6794C32.3749 70.0174 31.5172 70.1863 30.5076 70.1863C29.5665 70.1863 28.7515 70.0345 28.0628 69.7307C27.3784 69.427 26.8393 69.0035 26.4458 68.4602C26.0565 67.9169 25.8362 67.2859 25.7849 66.5673H27.4276C27.4703 67.0635 27.6372 67.4742 27.9281 67.7993C28.2232 68.1201 28.5954 68.3597 29.0446 68.518C29.498 68.672 29.9857 68.749 30.5076 68.749C31.1151 68.749 31.6605 68.6506 32.1439 68.4538C32.6273 68.2527 33.0101 67.9747 33.2925 67.6196C33.5748 67.2603 33.716 66.8411 33.716 66.3619C33.716 65.9256 33.5941 65.5705 33.3502 65.2968C33.1064 65.023 32.7856 64.8005 32.3877 64.6294C31.9899 64.4583 31.5599 64.3086 31.0979 64.1802L29.4809 63.7182C28.4542 63.4231 27.6414 63.0017 27.0425 62.4541C26.4436 61.9066 26.1442 61.19 26.1442 60.3045C26.1442 59.5687 26.3431 58.927 26.741 58.3795C27.1431 57.8276 27.6821 57.3999 28.358 57.0961C29.0382 56.7881 29.7975 56.6341 30.6359 56.6341C31.4829 56.6341 32.2358 56.786 32.8946 57.0897C33.5534 57.3892 34.0753 57.7998 34.4603 58.3217C34.8496 58.8436 35.0549 59.4361 35.0763 60.0992H33.5363Z" fill="white"/>
<path d="M38.3495 69.9553V56.8138H42.7899C43.8166 56.8138 44.6594 56.9892 45.3181 57.34C45.9769 57.6865 46.4646 58.1634 46.7812 58.7709C47.0977 59.3784 47.256 60.0692 47.256 60.8435C47.256 61.6178 47.0977 62.3044 46.7812 62.9033C46.4646 63.5022 45.9791 63.9728 45.3246 64.315C44.67 64.6529 43.8337 64.8219 42.8156 64.8219H39.2222V63.3846H42.7643C43.4658 63.3846 44.0305 63.2819 44.4583 63.0766C44.8904 62.8712 45.2026 62.5803 45.3951 62.2039C45.5919 61.8231 45.6903 61.3697 45.6903 60.8435C45.6903 60.3173 45.5919 59.8575 45.3951 59.4639C45.1984 59.0704 44.8839 58.7666 44.4519 58.5527C44.0198 58.3346 43.4487 58.2255 42.7386 58.2255H39.9409V69.9553H38.3495ZM44.5353 64.0519L47.7693 69.9553H45.9213L42.7386 64.0519H44.5353Z" fill="white"/>
<path d="M50.8885 69.9553H49.2202L54.0456 56.8138H55.6883L60.5137 69.9553H58.8453L54.9183 58.8928H54.8156L50.8885 69.9553ZM51.5046 64.8219H58.2293V66.2336H51.5046V64.8219Z" fill="white"/>
</svg>
